<svg xmlns="http://www.w3.org/2000/svg" width="27.508" height="22.385" viewBox="0 0 27.508 22.385">
  <path id="_x30_4.Twitter" d="M37.408,20.148a11.569,11.569,0,0,1-3.232.894,5.5,5.5,0,0,0,2.476-3.129,11.876,11.876,0,0,1-3.576,1.375,5.644,5.644,0,0,0-9.765,3.851,5.156,5.156,0,0,0,.138,1.272,15.874,15.874,0,0,1-11.588-5.88,5.659,5.659,0,0,0,1.719,7.53,5.415,5.415,0,0,1-2.545-.688,5.7,5.7,0,0,0,4.5,5.6,6.189,6.189,0,0,1-2.545.1A5.662,5.662,0,0,0,18.256,35,11.362,11.362,0,0,1,9.9,37.34a15.908,15.908,0,0,0,8.665,2.545c10.384,0,16.024-8.6,16.024-16.024a5.079,5.079,0,0,0-.034-.722,11.193,11.193,0,0,0,2.854-2.992Z" transform="translate(-9.9 -17.5)" fill="#000d0d"/>
</svg>
