<svg id="discord" xmlns="http://www.w3.org/2000/svg" width="32.706" height="24.929" viewBox="0 0 32.706 24.929">
  <path id="Path_15961" data-name="Path 15961" d="M27.687,62.938a26.973,26.973,0,0,0-6.657-2.065.1.1,0,0,0-.107.051,18.782,18.782,0,0,0-.829,1.7,24.9,24.9,0,0,0-7.477,0,17.236,17.236,0,0,0-.842-1.7.1.1,0,0,0-.107-.051A26.9,26.9,0,0,0,5.01,62.938a.1.1,0,0,0-.044.038A27.6,27.6,0,0,0,.134,81.591a.112.112,0,0,0,.043.077A27.123,27.123,0,0,0,8.344,85.8a.106.106,0,0,0,.115-.038,19.386,19.386,0,0,0,1.671-2.718.1.1,0,0,0-.057-.144,17.866,17.866,0,0,1-2.551-1.216.1.1,0,0,1-.01-.174c.171-.128.343-.262.507-.4a.1.1,0,0,1,.106-.014,19.341,19.341,0,0,0,16.437,0,.1.1,0,0,1,.107.013c.164.135.335.27.508.4a.1.1,0,0,1-.009.174A16.76,16.76,0,0,1,22.614,82.9a.1.1,0,0,0-.055.145,21.775,21.775,0,0,0,1.669,2.716.1.1,0,0,0,.115.039,27.031,27.031,0,0,0,8.18-4.128.1.1,0,0,0,.043-.075,27.422,27.422,0,0,0-4.836-18.616A.083.083,0,0,0,27.687,62.938ZM10.929,77.876a3.318,3.318,0,0,1,0-6.593,3.318,3.318,0,0,1,0,6.593Zm10.868,0a3.318,3.318,0,0,1,0-6.593,3.318,3.318,0,0,1,0,6.593Z" transform="translate(0.001 -60.871)" fill="#000d0d"/>
</svg>
