<svg xmlns="http://www.w3.org/2000/svg" width="110.898" height="95.378" viewBox="0 0 110.898 95.378">
  <g id="Group_6121" data-name="Group 6121" transform="translate(-128.5 -2277.841)">
    <g id="magic_1_" data-name="magic (1)" transform="translate(128.5 2267.881)">
      <path id="Path_84" data-name="Path 84" d="M210.425,356.393l1.386-.281a1.712,1.712,0,0,0,0-3.356l-1.386-.281a8.866,8.866,0,0,1-6.928-6.928l-.281-1.386a1.712,1.712,0,0,0-3.356,0l-.281,1.386a8.866,8.866,0,0,1-6.928,6.928l-1.386.281a1.712,1.712,0,0,0,0,3.356l1.386.281a8.866,8.866,0,0,1,6.928,6.928l.281,1.386a1.712,1.712,0,0,0,3.356,0l.281-1.386A8.866,8.866,0,0,1,210.425,356.393Z" transform="translate(-148.764 -260.74)" fill="#000d0d"/>
      <g id="Group_166" data-name="Group 166" transform="translate(0 9.96)">
        <path id="Path_89" data-name="Path 89" d="M40.293,319.876A1.673,1.673,0,0,1,38.62,318.2v-4.531a1.673,1.673,0,1,1,3.347,0V318.2A1.673,1.673,0,0,1,40.293,319.876Z" transform="translate(-30.255 -246.577)" fill="#000d0d"/>
        <path id="Path_90" data-name="Path 90" d="M40.293,376.2a1.673,1.673,0,0,1-1.673-1.673v-4.531a1.673,1.673,0,1,1,3.347,0v4.531A1.673,1.673,0,0,1,40.293,376.2Z" transform="translate(-30.255 -290.7)" fill="#000d0d"/>
        <path id="Path_91" data-name="Path 91" d="M62.526,353.965H57.994a1.673,1.673,0,0,1,0-3.347h4.531a1.673,1.673,0,1,1,0,3.347Z" transform="translate(-44.122 -276.833)" fill="#000d0d"/>
        <path id="Path_92" data-name="Path 92" d="M6.2,353.965H1.673a1.673,1.673,0,0,1,0-3.347H6.2a1.673,1.673,0,0,1,0,3.347Z" transform="translate(0 -276.833)" fill="#000d0d"/>
        <path id="Path_93" data-name="Path 93" d="M392.151,17.838a1.673,1.673,0,0,1-1.673-1.673V11.633a1.673,1.673,0,0,1,3.347,0v4.531A1.673,1.673,0,0,1,392.151,17.838Z" transform="translate(-305.902 -9.96)" fill="#000d0d"/>
        <path id="Path_94" data-name="Path 94" d="M392.151,74.159a1.673,1.673,0,0,1-1.673-1.673V67.954a1.673,1.673,0,0,1,3.347,0v4.531A1.673,1.673,0,0,1,392.151,74.159Z" transform="translate(-305.902 -54.082)" fill="#000d0d"/>
        <path id="Path_95" data-name="Path 95" d="M414.384,51.927h-4.531a1.673,1.673,0,1,1,0-3.347h4.531a1.673,1.673,0,1,1,0,3.347Z" transform="translate(-319.769 -40.215)" fill="#000d0d"/>
        <path id="Path_96" data-name="Path 96" d="M358.063,51.927h-4.531a1.673,1.673,0,1,1,0-3.347h4.531a1.673,1.673,0,1,1,0,3.347Z" transform="translate(-275.647 -40.215)" fill="#000d0d"/>
      </g>
      <g id="Group_167" data-name="Group 167" transform="translate(13.471 11.258)">
        <path id="Path_97" data-name="Path 97" d="M105.555,46.341,112.189,45a2.931,2.931,0,0,0,0-5.746l-6.633-1.345A16.6,16.6,0,0,1,92.584,24.935L91.239,18.3a2.931,2.931,0,0,0-5.746,0l-1.345,6.633A16.6,16.6,0,0,1,71.178,37.906l-6.633,1.345a2.931,2.931,0,0,0,0,5.746l6.633,1.345A16.6,16.6,0,0,1,84.149,59.312l1.345,6.633a2.931,2.931,0,0,0,5.746,0l1.345-6.633A16.6,16.6,0,0,1,105.555,46.341Z" transform="translate(-62.195 -15.953)" fill="#000d0d"/>
        <path id="Path_98" data-name="Path 98" d="M359.712,178.405l5.094-1.033a2.251,2.251,0,0,0,0-4.413l-5.094-1.033a12.749,12.749,0,0,1-9.962-9.962l-1.033-5.094a2.251,2.251,0,0,0-4.412,0l-1.033,5.094a12.749,12.749,0,0,1-9.962,9.962l-5.094,1.033a2.251,2.251,0,0,0,0,4.413l5.094,1.033a12.749,12.749,0,0,1,9.962,9.962l1.033,5.094a2.251,2.251,0,0,0,4.412,0l1.033-5.094A12.75,12.75,0,0,1,359.712,178.405Z" transform="translate(-269.184 -124.935)" fill="#000d0d"/>
      </g>
    </g>
  </g>
</svg>
