<svg xmlns="http://www.w3.org/2000/svg" xmlns:xlink="http://www.w3.org/1999/xlink" width="89" height="104.361" viewBox="0 0 89 104.361">
  <defs>
    <clipPath id="clip-path">
      <path id="Path_6885" data-name="Path 6885" d="M0,0Q.109,9.329.217,18.657l11.791-.01L4.318,10.33h7.709l4.279,4.628,1.195-1.29L30.171,0Z" fill="#fff"/>
    </clipPath>
    <clipPath id="clip-path-2">
      <path id="Path_6886" data-name="Path 6886" d="M38.195,143.073l-1.925,2.075L44.453,154h-7.71l-4.333-4.687q-7.088,7.651-14.179,15.3H38.958a10.769,10.769,0,0,0,0-21.538Z" transform="translate(-18.231 -143.073)" fill="#fff"/>
    </clipPath>
  </defs>
  <g id="Group_6113" data-name="Group 6113" transform="translate(-2508.394 -2776.721)">
    <ellipse id="Ellipse_7" data-name="Ellipse 7" cx="41.537" cy="41.915" rx="41.537" ry="41.915" transform="translate(2509.602 2776.721)" fill="#000d0d"/>
    <text id="Generate_AI_Magic" data-name="Generate AI Magic" transform="translate(2508.394 2879.082)" fill="#6c6c6c" font-size="10" font-family="Inter-Black, Inter" font-weight="800" letter-spacing="-0.02em"><tspan x="0" y="0">Generate AI Magic</tspan></text>
    <g id="Group_6077" data-name="Group 6077" transform="translate(2534.894 2801.121)">
      <g id="Group_5135" data-name="Group 5135">
        <g id="Group_5134" data-name="Group 5134" clip-path="url(#clip-path)">
          <rect id="Rectangle_3982" data-name="Rectangle 3982" width="30.171" height="18.657" transform="translate(0 0)" fill="#fff"/>
        </g>
      </g>
      <g id="Group_5137" data-name="Group 5137" transform="translate(2.181 17.115)">
        <g id="Group_5136" data-name="Group 5136" clip-path="url(#clip-path-2)">
          <rect id="Rectangle_3983" data-name="Rectangle 3983" width="37.5" height="37.5" transform="translate(-10.769 10.769) rotate(-45)" fill="#fff"/>
        </g>
      </g>
    </g>
  </g>
</svg>
