<svg xmlns="http://www.w3.org/2000/svg" width="30.026" height="23.77" viewBox="0 0 30.026 23.77">
  <g id="Group_6151" data-name="Group 6151" transform="translate(-1517.74 -6078.981)">
    <path id="medium" d="M27.63,5.294,30.026,3V2.5h-8.3L15.811,17.223,9.081,2.5H.379V3l2.8,3.369a1.174,1.174,0,0,1,.379.98V20.59a1.51,1.51,0,0,1-.4,1.314L0,25.725v.5H8.939v-.5L5.786,21.9a1.557,1.557,0,0,1-.434-1.314V9.138L13.2,26.226h.912L20.858,9.138V22.751c0,.359,0,.433-.235.668L18.2,25.767v.5H29.97v-.5l-2.339-2.291a.7.7,0,0,1-.268-.668V5.962a.693.693,0,0,1,.266-.668Z" transform="translate(1517.74 6076.481)" fill="#f6b61d"/>
  </g>
</svg>
