<svg xmlns="http://www.w3.org/2000/svg" width="71.746" height="71.746" viewBox="0 0 71.746 71.746">
  <g id="Group_6110" data-name="Group 6110" transform="translate(-2938.544 -2706.424)">
    <g id="Group_6" data-name="Group 6" transform="translate(2938.544 2706.424)">
      <circle id="Ellipse_6" data-name="Ellipse 6" cx="35.873" cy="35.873" r="35.873" transform="translate(0 0)" fill="#fff"/>
    </g>
    <path id="Path_24" data-name="Path 24" d="M297.02,692.9a1.436,1.436,0,0,0-.834-2.587l-5.82-.22a.147.147,0,0,1-.08-.029.159.159,0,0,1-.05-.068l-2.011-5.432a1.436,1.436,0,0,0-2.7,0l-2,5.451a.147.147,0,0,1-.05.068.142.142,0,0,1-.079.029l-5.82.22a1.436,1.436,0,0,0-.834,2.587l4.565,3.589a.151.151,0,0,1,.051.155l-1.571,5.567a1.435,1.435,0,0,0,2.185,1.584l4.824-3.233a.141.141,0,0,1,.161,0l4.824,3.233a1.419,1.419,0,0,0,2.185-1.552l-1.584-5.587a.135.135,0,0,1,0-.085.147.147,0,0,1,.05-.07Z" transform="translate(2687.843 2048.55)" fill="#b8b8b8"/>
  </g>
</svg>
