<svg xmlns="http://www.w3.org/2000/svg" xmlns:xlink="http://www.w3.org/1999/xlink" width="206" height="206" viewBox="0 0 206 206">
  <defs>
    <filter id="Rectangle_667" x="0" y="0" width="206" height="206" filterUnits="userSpaceOnUse">
      <feOffset dx="10" dy="14" input="SourceAlpha"/>
      <feGaussianBlur stdDeviation="15" result="blur"/>
      <feFlood flood-opacity="0.251"/>
      <feComposite operator="in" in2="blur"/>
      <feComposite in="SourceGraphic"/>
    </filter>
  </defs>
  <g id="Group_6119" data-name="Group 6119" transform="translate(-1121.093 -1886.09)">
    <g id="Group_1" data-name="Group 1" transform="translate(1156.463 1916.705)" opacity="0.5">
      <g transform="matrix(1, 0, 0, 1, -35.37, -30.61)" filter="url(#Rectangle_667)">
        <path id="Rectangle_667-2" data-name="Rectangle 667" d="M58,0h0a58,58,0,0,1,58,58v58a0,0,0,0,1,0,0H58A58,58,0,0,1,0,58v0A58,58,0,0,1,58,0Z" transform="translate(35 31)" fill="#f6b61d"/>
      </g>
    </g>
    <path id="calendar-clock" d="M25.564,15.1A10.5,10.5,0,1,0,36.09,25.564,10.539,10.539,0,0,0,25.564,15.1Zm0,17.986a7.489,7.489,0,1,1,7.519-7.519A7.5,7.5,0,0,1,25.564,33.082ZM28.131,26A1.5,1.5,0,1,1,26,28.131l-1.5-1.5a1.5,1.5,0,0,1-.441-1.063V22.556a1.5,1.5,0,0,1,3.008,0v2.385ZM36.09,10.526v3.007a1.5,1.5,0,0,1-3.007,0V10.526a4.517,4.517,0,0,0-4.511-4.511H7.519a4.517,4.517,0,0,0-4.511,4.511v1.5H16.541a1.5,1.5,0,1,1,0,3.007H3.007V28.571a4.517,4.517,0,0,0,4.511,4.511h6.015a1.5,1.5,0,0,1,0,3.007H7.519A7.527,7.527,0,0,1,0,28.571V10.526A7.527,7.527,0,0,1,7.519,3.007h1.5V1.5a1.5,1.5,0,0,1,3.007,0v1.5H24.06V1.5a1.5,1.5,0,0,1,3.007,0v1.5h1.5a7.527,7.527,0,0,1,7.519,7.519Z" transform="translate(1196.048 1957.397)" fill="#fff"/>
  </g>
</svg>
