<svg xmlns="http://www.w3.org/2000/svg" width="38.457" height="29.313" viewBox="0 0 38.457 29.313">
  <g id="Group_6148" data-name="Group 6148" transform="translate(-1689.585 -6075.981)">
    <g id="discord" transform="translate(1689.586 6015.109)">
      <path id="Path_15961" data-name="Path 15961" d="M32.555,63.3a31.716,31.716,0,0,0-7.828-2.428.119.119,0,0,0-.126.059,22.084,22.084,0,0,0-.975,2,29.275,29.275,0,0,0-8.792,0,20.267,20.267,0,0,0-.99-2,.123.123,0,0,0-.126-.059A31.625,31.625,0,0,0,5.891,63.3a.112.112,0,0,0-.052.044A32.457,32.457,0,0,0,.158,85.234a.132.132,0,0,0,.05.09,31.891,31.891,0,0,0,9.6,4.854.124.124,0,0,0,.135-.044,22.794,22.794,0,0,0,1.964-3.2.122.122,0,0,0-.067-.169,21.006,21.006,0,0,1-3-1.43.123.123,0,0,1-.012-.2c.2-.151.4-.308.6-.467a.119.119,0,0,1,.124-.017,22.742,22.742,0,0,0,19.327,0,.119.119,0,0,1,.126.015c.193.159.394.317.6.468a.123.123,0,0,1-.011.2,19.706,19.706,0,0,1-3,1.428.123.123,0,0,0-.065.171,25.6,25.6,0,0,0,1.963,3.194.122.122,0,0,0,.135.046,31.784,31.784,0,0,0,9.618-4.854.123.123,0,0,0,.05-.088A32.243,32.243,0,0,0,32.6,63.347.1.1,0,0,0,32.555,63.3ZM12.85,80.865a3.9,3.9,0,0,1,0-7.752,3.9,3.9,0,0,1,0,7.752Zm12.778,0a3.9,3.9,0,0,1,0-7.752,3.9,3.9,0,0,1,0,7.752Z" transform="translate(0)" fill="#f6b61d"/>
    </g>
  </g>
</svg>
