<svg xmlns="http://www.w3.org/2000/svg" xmlns:xlink="http://www.w3.org/1999/xlink" width="386" height="386" viewBox="0 0 386 386">
  <defs>
    <filter id="Rectangle_667" x="0" y="0" width="386" height="386" filterUnits="userSpaceOnUse">
      <feOffset dx="30" dy="34" input="SourceAlpha"/>
      <feGaussianBlur stdDeviation="45" result="blur"/>
      <feFlood flood-opacity="0.251"/>
      <feComposite operator="in" in2="blur"/>
      <feComposite in="SourceGraphic"/>
    </filter>
    <clipPath id="clip-path">
      <rect id="Love_Background_Mask_" data-name="Love (Background/Mask)" width="42" height="42" transform="translate(-0.258 0.005)" fill="none"/>
    </clipPath>
    <filter id="Rectangle_667-2" x="0" y="0" width="386" height="386" filterUnits="userSpaceOnUse">
      <feOffset dx="30" dy="34" input="SourceAlpha"/>
      <feGaussianBlur stdDeviation="45" result="blur-2"/>
      <feFlood flood-opacity="0.251"/>
      <feComposite operator="in" in2="blur-2"/>
      <feComposite in="SourceGraphic"/>
    </filter>
  </defs>
  <g id="Group_6118" data-name="Group 6118" transform="translate(-1051.093 -1658.09)">
    <g id="Group_1" data-name="Group 1" transform="translate(1156.463 1758.705)">
      <g transform="matrix(1, 0, 0, 1, -105.37, -100.61)" filter="url(#Rectangle_667)">
        <path id="Rectangle_667-3" data-name="Rectangle 667" d="M58,0h0a58,58,0,0,1,58,58v58a0,0,0,0,1,0,0H58A58,58,0,0,1,0,58v0A58,58,0,0,1,58,0Z" transform="translate(105 101)" fill="#fdae8a"/>
      </g>
      <g id="Love" transform="translate(36.888 36.38)">
        <rect id="Love_Background_Mask_2" data-name="Love (Background/Mask)" width="42" height="42" transform="translate(-0.258 0.005)" fill="none"/>
        <g id="Love-2" data-name="Love" transform="translate(0 0)" clip-path="url(#clip-path)">
          <path id="Union" d="M9.984,22.147l-.066-.067L2.46,14.526A8.532,8.532,0,1,1,14.6,2.538l1.421,1.439,1.421-1.439A8.532,8.532,0,1,1,29.588,14.526L22.1,22.116q-.075.076-.152.15l-6,5.921Z" transform="translate(4.74 7.161)" fill="none" stroke="#fff" stroke-linejoin="round" stroke-width="4.375" stroke-dasharray="0 0"/>
        </g>
      </g>
    </g>
    <g id="Group_1-2" data-name="Group 1" transform="translate(1156.463 1758.705)">
      <g transform="matrix(1, 0, 0, 1, -105.37, -100.61)" filter="url(#Rectangle_667-2)">
        <path id="Rectangle_667-4" data-name="Rectangle 667" d="M58,0h0a58,58,0,0,1,58,58v58a0,0,0,0,1,0,0H58A58,58,0,0,1,0,58v0A58,58,0,0,1,58,0Z" transform="translate(105 101)" fill="#f6b61d"/>
      </g>
    </g>
    <g id="mode-portrait" transform="translate(1196.047 1799.455)">
      <path id="Path_15928" data-name="Path 15928" d="M26.526,16a1.5,1.5,0,0,0-1.5,1.5v3.007a4.511,4.511,0,0,1-4.511,4.511H17.5a1.5,1.5,0,1,0,0,3.007h3.007a7.528,7.528,0,0,0,7.519-7.519V17.5A1.5,1.5,0,0,0,26.526,16Z" transform="translate(8.06 8.06)" fill="#fff"/>
      <path id="Path_15929" data-name="Path 15929" d="M1.5,12.03a1.5,1.5,0,0,0,1.5-1.5V7.519A4.511,4.511,0,0,1,7.519,3.007h3.007a1.5,1.5,0,1,0,0-3.007H7.519A7.528,7.528,0,0,0,0,7.519v3.007a1.5,1.5,0,0,0,1.5,1.5Z" fill="#fff"/>
      <path id="Path_15930" data-name="Path 15930" d="M10.526,25.022H7.519a4.511,4.511,0,0,1-4.511-4.511V17.5A1.5,1.5,0,0,0,0,17.5v3.007A7.528,7.528,0,0,0,7.519,28.03h3.007a1.5,1.5,0,1,0,0-3.007Z" transform="translate(0 8.06)" fill="#fff"/>
      <path id="Path_15931" data-name="Path 15931" d="M20.511,0H17.5a1.5,1.5,0,1,0,0,3.007h3.007a4.511,4.511,0,0,1,4.511,4.511v3.007a1.5,1.5,0,0,0,3.007,0V7.519A7.528,7.528,0,0,0,20.511,0Z" transform="translate(8.06)" fill="#fff"/>
      <path id="Path_15932" data-name="Path 15932" d="M14.015,15.03A6.015,6.015,0,1,0,8,9.015a6.015,6.015,0,0,0,6.015,6.015Zm0-9.022a3.007,3.007,0,1,1-3.007,3.007A3.007,3.007,0,0,1,14.015,6.007Z" transform="translate(4.03 1.511)" fill="#fff"/>
      <path id="Path_15933" data-name="Path 15933" d="M24.549,23.526a1.5,1.5,0,0,0,1.5-1.5A9.032,9.032,0,0,0,17.03,13H14.023A9.032,9.032,0,0,0,5,22.022a1.5,1.5,0,0,0,3.008,0,6.015,6.015,0,0,1,6.015-6.015H17.03a6.015,6.015,0,0,1,6.015,6.015A1.5,1.5,0,0,0,24.549,23.526Z" transform="translate(2.519 6.549)" fill="#fff"/>
    </g>
  </g>
</svg>
