<svg xmlns="http://www.w3.org/2000/svg" width="116" height="116" viewBox="0 0 116 116">
  <g id="Group_6134" data-name="Group 6134" transform="translate(-2121.093 -2941)">
    <path id="Rectangle_667" data-name="Rectangle 667" d="M58,0h0a58,58,0,0,1,58,58v58a0,0,0,0,1,0,0H58A58,58,0,0,1,0,58v0A58,58,0,0,1,58,0Z" transform="translate(2121.093 2941)" fill="#f6b61d"/>
    <path id="artificial-intelligence" d="M28.6,18.045v9.022a1.5,1.5,0,0,1-3.007,0V18.045a1.5,1.5,0,0,1,3.007,0ZM17.439,10.1l4.618,16.585a1.488,1.488,0,0,1-2.865.8l-.967-3.429H10.4L9.43,27.489A1.487,1.487,0,0,1,8,28.571H8a1.488,1.488,0,0,1-1.433-1.886l4.648-16.7a3.175,3.175,0,0,1,1.651-2.113A3.169,3.169,0,0,1,17.441,10.1Zm-.062,10.952-2.9-10.278a.17.17,0,0,0-.329,0l-2.9,10.278Zm17.236-6.015a1.5,1.5,0,0,0-1.5,1.5v12.03A4.517,4.517,0,0,1,28.6,33.082H7.545a4.517,4.517,0,0,1-4.511-4.511V7.519A4.517,4.517,0,0,1,7.545,3.007h12.03a1.5,1.5,0,1,0,0-3.007H7.545A7.527,7.527,0,0,0,.026,7.519V28.571A7.527,7.527,0,0,0,7.545,36.09H28.6a7.527,7.527,0,0,0,7.519-7.519V16.541a1.5,1.5,0,0,0-1.5-1.5Zm-10.3-7.248,2.809,1.183,1.12,2.8a1.6,1.6,0,0,0,2.968,0l1.114-2.788,2.788-1.114a1.6,1.6,0,0,0,0-2.968L32.325,3.792,31.211,1a1.6,1.6,0,0,0-2.97,0L27.133,3.776,24.366,4.824a1.6,1.6,0,0,0-.054,2.967Z" transform="translate(2161.021 2980.955)" fill="#fff"/>
  </g>
</svg>
