<svg id="Group_6071" data-name="Group 6071" xmlns="http://www.w3.org/2000/svg" xmlns:xlink="http://www.w3.org/1999/xlink" width="409.738" height="827.23" viewBox="0 0 409.738 827.23">
  <defs>
    <clipPath id="clip-path">
      <path id="Path_15958" data-name="Path 15958" d="M421.449,19h58.767a2.456,2.456,0,0,1,2.449,2.449h0a2.456,2.456,0,0,1-2.449,2.449H421.449A2.456,2.456,0,0,1,419,21.449h0A2.456,2.456,0,0,1,421.449,19Z" transform="translate(-419 -19)" fill="#dddfe0"/>
    </clipPath>
  </defs>
  <g id="iPhone_13_Pro_White" data-name="iPhone 13 Pro White" transform="translate(0 0)">
    <g id="iPhone_13_Pro" data-name="iPhone 13 Pro">
      <path id="Path_15942" data-name="Path 15942" d="M1.224,408H6.938a1.2,1.2,0,0,1,1.224,1.224v28.159a1.2,1.2,0,0,1-1.224,1.224H1.224A1.2,1.2,0,0,1,0,437.384V409.224A1.2,1.2,0,0,1,1.224,408Z" transform="translate(0 -241.493)" fill="#fff"/>
      <path id="Path_15943" data-name="Path 15943" d="M6.938,438.608H1.224A1.2,1.2,0,0,1,0,437.384V409.224A1.2,1.2,0,0,1,1.224,408H6.938a1.2,1.2,0,0,1,1.224,1.224v28.159A1.2,1.2,0,0,1,6.938,438.608Zm-5.713-30.2a.819.819,0,0,0-.816.816v28.159a.819.819,0,0,0,.816.816H6.938a.819.819,0,0,0,.816-.816V409.224a.819.819,0,0,0-.816-.816Z" transform="translate(0 -241.493)" fill="#dddfe0"/>
      <path id="Path_15944" data-name="Path 15944" d="M3.224,553H8.938a1.2,1.2,0,0,1,1.224,1.224v59.992a1.2,1.2,0,0,1-1.224,1.224H3.224A1.2,1.2,0,0,1,2,614.216V554.224A1.2,1.2,0,0,1,3.224,553Z" transform="translate(-1.184 -327.318)" fill="#fff"/>
      <path id="Path_15945" data-name="Path 15945" d="M8.938,615.44H3.224A1.2,1.2,0,0,1,2,614.216V554.224A1.2,1.2,0,0,1,3.224,553H8.938a1.2,1.2,0,0,1,1.224,1.224v59.992A1.2,1.2,0,0,1,8.938,615.44ZM3.224,553.408a.819.819,0,0,0-.816.816v59.992a.819.819,0,0,0,.816.816H8.938a.819.819,0,0,0,.816-.816V554.224a.819.819,0,0,0-.816-.816Z" transform="translate(-1.184 -327.318)" fill="#dddfe0"/>
      <path id="Path_15946" data-name="Path 15946" d="M985.224,605h5.714a1.2,1.2,0,0,1,1.224,1.224v95.9a1.2,1.2,0,0,1-1.224,1.224h-5.714A1.2,1.2,0,0,1,984,702.129v-95.9A1.2,1.2,0,0,1,985.224,605Z" transform="translate(-582.424 -358.096)" fill="#fff"/>
      <path id="Path_15947" data-name="Path 15947" d="M990.938,703.353h-5.714A1.2,1.2,0,0,1,984,702.129v-95.9A1.2,1.2,0,0,1,985.224,605h5.714a1.2,1.2,0,0,1,1.224,1.224v95.9A1.2,1.2,0,0,1,990.938,703.353Zm-5.714-97.945a.819.819,0,0,0-.816.816v95.9a.819.819,0,0,0,.816.816h5.714a.819.819,0,0,0,.816-.816v-95.9a.819.819,0,0,0-.816-.816Z" transform="translate(-582.424 -358.096)" fill="#dddfe0"/>
      <path id="Path_15948" data-name="Path 15948" d="M3.224,746H8.938a1.2,1.2,0,0,1,1.224,1.224v59.992a1.2,1.2,0,0,1-1.224,1.224H3.224A1.2,1.2,0,0,1,2,807.216V747.224A1.2,1.2,0,0,1,3.224,746Z" transform="translate(-1.184 -441.553)" fill="#fff"/>
      <path id="Path_15949" data-name="Path 15949" d="M8.938,808.44H3.224A1.2,1.2,0,0,1,2,807.216V747.224A1.2,1.2,0,0,1,3.224,746H8.938a1.2,1.2,0,0,1,1.224,1.224v59.992A1.2,1.2,0,0,1,8.938,808.44ZM3.224,746.408a.818.818,0,0,0-.816.816v59.992a.819.819,0,0,0,.816.816H8.938a.819.819,0,0,0,.816-.816V747.224a.818.818,0,0,0-.816-.816Z" transform="translate(-1.184 -441.553)" fill="#dddfe0"/>
      <path id="Path_15950" data-name="Path 15950" d="M70.032,0H349.585a62.057,62.057,0,0,1,62.032,62.032V765.2a62.057,62.057,0,0,1-62.032,62.032H70.032A62.057,62.057,0,0,1,8,765.2V62.032A62.057,62.057,0,0,1,70.032,0Z" transform="translate(-4.735)" fill="#fff"/>
      <path id="Path_15951" data-name="Path 15951" d="M349.585,827.23H70.032A62.109,62.109,0,0,1,8,765.2V62.032A62.109,62.109,0,0,1,70.032,0H349.585a62.109,62.109,0,0,1,62.032,62.032V765.2A62.109,62.109,0,0,1,349.585,827.23ZM70.032.408A61.674,61.674,0,0,0,8.408,62.032V765.2a61.674,61.674,0,0,0,61.624,61.624H349.585A61.674,61.674,0,0,0,411.208,765.2V62.032A61.674,61.674,0,0,0,349.585.408Z" transform="translate(-4.735)" fill="#dddfe0"/>
      <path id="Path_15952" data-name="Path 15952" d="M74.032,4h276.7A62.057,62.057,0,0,1,412.76,66.032V766.341a62.057,62.057,0,0,1-62.032,62.032H74.032A62.057,62.057,0,0,1,12,766.341V66.032A62.057,62.057,0,0,1,74.032,4Z" transform="translate(-7.103 -2.368)" fill="none"/>
      <path id="Path_15953" data-name="Path 15953" d="M356.369,830.73H81.714A59.082,59.082,0,0,1,70,829.547a58.22,58.22,0,0,1-20.773-8.734,62.209,62.209,0,0,1-8.611-7.1,57.973,57.973,0,0,1-12.447-18.487,60.158,60.158,0,0,1-3.387-10.9A59.4,59.4,0,0,1,23.6,772.616V74.714A59.086,59.086,0,0,1,24.784,63a58.216,58.216,0,0,1,8.733-20.773,62.2,62.2,0,0,1,7.1-8.611A57.97,57.97,0,0,1,59.105,21.171,60.159,60.159,0,0,1,70,17.784,59.4,59.4,0,0,1,81.714,16.6H356.369a59.086,59.086,0,0,1,11.713,1.184,58.216,58.216,0,0,1,20.773,8.733,62.2,62.2,0,0,1,8.611,7.1,55.331,55.331,0,0,1,7.1,8.611,57.76,57.76,0,0,1,5.346,9.876A60.156,60.156,0,0,1,413.3,63a59.392,59.392,0,0,1,1.184,11.713V772.575a59.082,59.082,0,0,1-1.184,11.713,58.213,58.213,0,0,1-8.733,20.773,62.19,62.19,0,0,1-7.1,8.611,57.961,57.961,0,0,1-18.487,12.447,60.157,60.157,0,0,1-10.9,3.387A56.208,56.208,0,0,1,356.369,830.73Z" transform="translate(-13.969 -9.825)" fill="#f0f3f4"/>
      <circle id="Forma" cx="7.55" cy="7.55" r="7.55" transform="translate(141.613 22.854)" fill="#dddfe0"/>
      <circle id="Forma-2" cx="3.877" cy="3.877" r="3.877" transform="translate(145.286 26.527)" fill="#fff"/>
      <path id="Path_15954" data-name="Path 15954" d="M415,16h66.929v4.081a4.093,4.093,0,0,1-4.081,4.081H419.081A4.093,4.093,0,0,1,415,20.081V16Z" transform="translate(-245.636 -9.47)" fill="none"/>
      <path id="Path_15955" data-name="Path 15955" d="M477.848,24.162H419.081A4.093,4.093,0,0,1,415,20.081V16.408a.386.386,0,0,1,.408-.408h66.113a.386.386,0,0,1,.408.408v3.673A4.093,4.093,0,0,1,477.848,24.162Zm-62.44-7.754v3.673a3.658,3.658,0,0,0,3.673,3.673h58.767a3.658,3.658,0,0,0,3.673-3.673V16.408Zm0-.2v.2h0Z" transform="translate(-245.636 -9.47)" fill="#dddfe0"/>
      <path id="Path_15956" data-name="Path 15956" d="M421.449,19h58.767a2.456,2.456,0,0,1,2.449,2.449h0a2.456,2.456,0,0,1-2.449,2.449H421.449A2.456,2.456,0,0,1,419,21.449h0A2.456,2.456,0,0,1,421.449,19Z" transform="translate(-248.004 -11.246)" fill="none"/>
      <path id="Path_15957" data-name="Path 15957" d="M480.216,23.9H421.449a2.449,2.449,0,0,1,0-4.9h58.767a2.449,2.449,0,1,1,0,4.9Zm-58.767-4.489a2.041,2.041,0,0,0,0,4.081h58.767a2.041,2.041,0,0,0,0-4.081Z" transform="translate(-248.004 -11.246)" fill="#dddfe0"/>
      <g id="Group_6070" data-name="Group 6070" transform="translate(170.996 7.754)" clip-path="url(#clip-path)">
        <path id="Union_1" d="M483.481,24.713V23.9h-.816v-.408h-.408v-.816h-.816v-.408h-.408v-.816h-.816v-.408h-.408v-.816h-.816v-.408h-.408V19h.408v.816h.816v.408h.408v.816h.816v.408h.408v.816h.816v.408h.408v.816h.816V23.9h.408v.816Zm-1.224,0V23.9h-.816v-.408h-.408v-.816h-.816v-.408h-.408v-.816h-.816v-.408h-.408v-.816h-.816v-.408h-.408V19h.408v.816h.816v.408h.408v.816h.816v.408h.408v.816h.816v.408h.408v.816h.816V23.9h.408v.816Zm-1.224,0V23.9h-.816v-.408h-.408v-.816h-.816v-.408h-.408v-.816h-.816v-.408h-.408v-.816h-.816v-.408h-.408V19h.408v.816h.816v.408h.408v.816h.816v.408h.408v.816h.816v.408h.408v.816h.816V23.9h.408v.816Zm-1.224,0V23.9h-.816v-.408h-.408v-.816h-.816v-.408h-.408v-.816h-.816v-.408h-.408v-.816h-.816v-.408h-.408V19h.408v.816h.816v.408h.408v.816h.816v.408h.408v.816h.816v.408h.408v.816h.816V23.9h.408v.816Zm-1.224,0V23.9h-.816v-.408h-.408v-.816h-.816v-.408h-.408v-.816h-.816v-.408h-.408v-.816h-.816v-.408h-.408V19h.408v.816h.816v.408h.408v.816h.816v.408h.408v.816h.816v.408h.408v.816h.816V23.9h.408v.816Zm-1.224,0V23.9h-.816v-.408h-.408v-.816h-.816v-.408h-.408v-.816h-.816v-.408h-.408v-.816h-.816v-.408h-.408V19h.408v.816h.816v.408h.408v.816h.816v.408h.408v.816h.816v.408h.408v.816h.816V23.9h.408v.816Zm-1.224,0V23.9h-.816v-.408h-.408v-.816h-.816v-.408h-.408v-.816h-.816v-.408h-.408v-.816h-.816v-.408h-.408V19h.408v.816h.816v.408h.408v.816h.816v.408h.408v.816h.816v.408h.408v.816h.816V23.9h.408v.816Zm-1.224,0V23.9h-.816v-.408h-.408v-.816h-.816v-.408h-.408v-.816h-.816v-.408h-.408v-.816h-.816v-.408h-.408V19h.408v.816h.816v.408h.408v.816h.816v.408h.408v.816h.816v.408h.408v.816h.816V23.9h.408v.816Zm-1.224,0V23.9h-.816v-.408h-.408v-.816h-.816v-.408h-.408v-.816h-.816v-.408h-.408v-.816H469.2v-.408h-.408V19h.408v.816h.816v.408h.408v.816h.816v.408h.408v.816h.816v.408h.408v.816h.816V23.9h.408v.816Zm-1.224,0V23.9h-.816v-.408h-.408v-.816h-.816v-.408h-.408v-.816H469.2v-.408h-.408v-.816h-.816v-.408h-.408V19h.408v.816h.816v.408h.408v.816h.816v.408h.408v.816h.816v.408h.408v.816h.816V23.9h.408v.816Zm-1.224,0V23.9h-.816v-.408h-.408v-.816H469.2v-.408h-.408v-.816h-.816v-.408h-.408v-.816h-.816v-.408h-.408V19h.408v.816h.816v.408h.408v.816h.816v.408h.408v.816h.816v.408h.408v.816h.816V23.9h.408v.816Zm-1.224,0V23.9H469.2v-.408h-.408v-.816h-.816v-.408h-.408v-.816h-.816v-.408h-.408v-.816h-.816v-.408h-.408V19h.408v.816h.816v.408h.408v.816h.816v.408h.408v.816h.816v.408h.408v.816h.816V23.9h.408v.816Zm-1.224,0V23.9h-.816v-.408h-.408v-.816h-.816v-.408h-.408v-.816h-.816v-.408h-.408v-.816H464.3v-.408h-.408V19h.408v.816h.816v.408h.408v.816h.816v.408h.408v.816h.816v.408h.408v.816h.816V23.9h.408v.816Zm-1.224,0V23.9h-.816v-.408h-.408v-.816h-.816v-.408h-.408v-.816H464.3v-.408h-.408v-.816h-.816v-.408h-.408V19h.408v.816h.816v.408h.408v.816h.816v.408h.408v.816h.816v.408h.408v.816h.816V23.9h.408v.816Zm-1.224,0V23.9h-.816v-.408h-.408v-.816H464.3v-.408h-.408v-.816h-.816v-.408h-.408v-.816h-.816v-.408h-.408V19h.408v.816h.816v.408h.408v.816h.816v.408h.408v.816h.816v.408h.408v.816h.816V23.9h.408v.816Zm-1.224,0V23.9H464.3v-.408h-.408v-.816h-.816v-.408h-.408v-.816h-.816v-.408h-.408v-.816h-.816v-.408h-.408V19h.408v.816h.816v.408h.408v.816h.816v.408h.408v.816h.816v.408h.408v.816h.816V23.9h.408v.816Zm-1.224,0V23.9h-.816v-.408h-.408v-.816h-.816v-.408h-.408v-.816h-.816v-.408h-.408v-.816H459.4v-.408h-.408V19h.408v.816h.816v.408h.408v.816h.816v.408h.408v.816h.816v.408h.408v.816h.816V23.9h.408v.816Zm-1.224,0V23.9h-.816v-.408h-.408v-.816h-.816v-.408h-.408v-.816H459.4v-.408h-.408v-.816h-.816v-.408h-.408V19h.408v.816h.816v.408h.408v.816h.816v.408h.408v.816h.816v.408h.408v.816h.816V23.9h.408v.816Zm-1.224,0V23.9h-.816v-.408h-.408v-.816H459.4v-.408h-.408v-.816h-.816v-.408h-.408v-.816h-.816v-.408h-.408V19h.408v.816h.816v.408h.408v.816h.816v.408h.408v.816h.816v.408h.408v.816h.816V23.9h.408v.816Zm-1.224,0V23.9H459.4v-.408h-.408v-.816h-.816v-.408h-.408v-.816h-.816v-.408h-.408v-.816h-.816v-.408h-.408V19h.408v.816h.816v.408h.408v.816h.816v.408h.408v.816h.816v.408h.408v.816h.816V23.9h.408v.816Zm-1.224,0V23.9h-.816v-.408h-.408v-.816h-.816v-.408h-.408v-.816h-.816v-.408h-.408v-.816h-.816v-.408H454.1V19h.408v.816h.816v.408h.408v.816h.816v.408h.408v.816h.816v.408h.408v.816h.816V23.9h.408v.816Zm-1.224,0V23.9h-.816v-.408h-.408v-.816h-.816v-.408h-.408v-.816h-.816v-.408H454.1v-.816h-.816v-.408h-.408V19h.408v.816h.816v.408h.408v.816h.816v.408h.408v.816h.816v.408h.408v.816h.816V23.9h.408v.816Zm-1.224,0V23.9h-.816v-.408h-.408v-.816h-.816v-.408H454.1v-.816h-.816v-.408h-.408v-.816h-.816v-.408h-.408V19h.408v.816h.816v.408h.408v.816h.816v.408h.408v.816h.816v.408h.408v.816h.816V23.9h.408v.816Zm-1.224,0V23.9h-.816v-.408H454.1v-.816h-.816v-.408h-.408v-.816h-.816v-.408h-.408v-.816h-.816v-.408h-.408V19h.408v.816h.816v.408h.408v.816h.816v.408h.408v.816h.816v.408h.408v.816h.816V23.9h.408v.816Zm-1.224,0V23.9h-.816v-.408h-.408v-.816h-.816v-.408h-.408v-.816h-.816v-.408h-.408v-.816h-.816v-.408H449.2V19h.408v.816h.816v.408h.408v.816h.816v.408h.408v.816h.816v.408h.408v.816h.816V23.9h.408v.816Zm-1.224,0V23.9h-.816v-.408h-.408v-.816h-.816v-.408h-.408v-.816h-.816v-.408H449.2v-.816h-.816v-.408h-.408V19h.408v.816h.816v.408h.408v.816h.816v.408h.408v.816h.816v.408h.408v.816h.816V23.9h.408v.816Zm-1.224,0V23.9h-.816v-.408h-.408v-.816h-.816v-.408H449.2v-.816h-.816v-.408h-.408v-.816h-.816v-.408h-.408V19h.408v.816h.816v.408h.408v.816h.816v.408h.408v.816h.816v.408h.408v.816h.816V23.9h.408v.816Zm-1.224,0V23.9h-.816v-.408H449.2v-.816h-.816v-.408h-.408v-.816h-.816v-.408h-.408v-.816h-.816v-.408h-.408V19h.408v.816h.816v.408h.408v.816h.816v.408h.408v.816h.816v.408h.408v.816h.816V23.9h.408v.816Zm-1.224,0V23.9h-.816v-.408h-.408v-.816h-.816v-.408h-.408v-.816h-.816v-.408h-.408v-.816h-.816v-.408H444.3V19h.408v.816h.816v.408h.408v.816h.816v.408h.408v.816h.816v.408h.408v.816h.816V23.9h.408v.816Zm-1.224,0V23.9h-.816v-.408h-.408v-.816h-.816v-.408h-.408v-.816h-.816v-.408H444.3v-.816h-.816v-.408h-.408V19h.408v.816h.816v.408h.408v.816h.816v.408h.408v.816h.816v.408h.408v.816h.816V23.9h.408v.816Zm-1.224,0V23.9h-.816v-.408h-.408v-.816h-.816v-.408H444.3v-.816h-.816v-.408h-.408v-.816h-.816v-.408h-.408V19h.408v.816h.816v.408h.408v.816h.816v.408h.408v.816h.816v.408h.408v.816h.816V23.9h.408v.816Zm-1.224,0V23.9h-.816v-.408H444.3v-.816h-.816v-.408h-.408v-.816h-.816v-.408h-.408v-.816h-.816v-.408h-.408V19h.408v.816h.816v.408h.408v.816h.816v.408h.408v.816h.816v.408h.408v.816h.816V23.9h.408v.816Zm-1.224,0V23.9h-.816v-.408h-.408v-.816h-.816v-.408h-.408v-.816h-.816v-.408h-.408v-.816h-.816v-.408h-.408V19h.408v.816h.816v.408h.408v.816h.816v.408h.408v.816h.816v.408h.408v.816h.816V23.9h.408v.816Zm-1.224,0V23.9h-.816v-.408h-.408v-.816h-.816v-.408h-.408v-.816h-.816v-.408h-.408v-.816h-.816v-.408h-.408V19h.408v.816h.816v.408h.408v.816h.816v.408h.408v.816h.816v.408h.408v.816h.816V23.9h.408v.816Zm-1.224,0V23.9h-.816v-.408h-.408v-.816h-.816v-.408h-.408v-.816h-.816v-.408h-.408v-.816h-.816v-.408h-.408V19h.408v.816h.816v.408h.408v.816h.816v.408h.408v.816h.816v.408h.408v.816h.816V23.9h.408v.816Zm-1.224,0V23.9h-.816v-.408h-.408v-.816h-.816v-.408h-.408v-.816h-.816v-.408h-.408v-.816h-.816v-.408h-.408V19h.408v.816h.816v.408h.408v.816h.816v.408h.408v.816h.816v.408h.408v.816h.816V23.9h.408v.816Zm-1.224,0V23.9h-.816v-.408h-.408v-.816h-.816v-.408h-.408v-.816h-.816v-.408h-.408v-.816h-.816v-.408h-.408V19h.408v.816h.816v.408h.408v.816h.816v.408h.408v.816h.816v.408h.408v.816h.816V23.9h.408v.816Zm-1.224,0V23.9h-.816v-.408h-.408v-.816h-.816v-.408h-.408v-.816h-.816v-.408h-.408v-.816h-.816v-.408h-.408V19h.408v.816h.816v.408h.408v.816h.816v.408h.408v.816h.816v.408h.408v.816h.816V23.9h.408v.816Zm-1.224,0V23.9h-.816v-.408h-.408v-.816h-.816v-.408h-.408v-.816h-.816v-.408h-.408v-.816h-.816v-.408h-.408V19h.408v.816h.816v.408h.408v.816h.816v.408h.408v.816h.816v.408h.408v.816h.816V23.9h.408v.816Zm-1.224,0V23.9h-.816v-.408h-.408v-.816h-.816v-.408h-.408v-.816h-.816v-.408h-.408v-.816h-.816v-.408h-.408V19h.408v.816h.816v.408h.408v.816h.816v.408h.408v.816h.816v.408h.408v.816h.816V23.9h.408v.816Zm-1.224,0V23.9h-.816v-.408h-.408v-.816h-.816v-.408h-.408v-.816h-.816v-.408h-.408v-.816h-.816v-.408h-.408V19h.408v.816h.816v.408h.408v.816h.816v.408h.408v.816h.816v.408h.408v.816h.816V23.9h.408v.816Zm-1.224,0V23.9h-.816v-.408h-.408v-.816h-.816v-.408h-.408v-.816h-.816v-.408h-.408v-.816h-.816v-.408h-.408V19h.408v.816h.816v.408h.408v.816h.816v.408h.408v.816h.816v.408h.408v.816h.816V23.9h.408v.816Zm-1.224,0V23.9h-.816v-.408h-.408v-.816h-.816v-.408h-.408v-.816h-.816v-.408h-.408v-.816h-.816v-.408h-.408V19h.408v.816h.816v.408h.408v.816h.816v.408h.408v.816h.816v.408h.408v.816h.816V23.9h.408v.816Zm-1.224,0V23.9h-.816v-.408h-.408v-.816h-.816v-.408h-.408v-.816h-.816v-.408h-.408v-.816h-.816v-.408h-.408V19h.408v.816h.816v.408h.408v.816h.816v.408h.408v.816h.816v.408h.408v.816h.816V23.9h.408v.816Zm-1.224,0V23.9h-.816v-.408h-.408v-.816h-.816v-.408h-.408v-.816h-.816v-.408h-.408v-.816h-.816v-.408h-.408V19h.408v.816h.816v.408h.408v.816h.816v.408h.408v.816h.816v.408h.408v.816h.816V23.9h.408v.816Zm-1.224,0V23.9h-.816v-.408h-.408v-.816h-.816v-.408h-.408v-.816h-.816v-.408h-.408v-.816H423.9v-.408h-.408V19h.408v.816h.816v.408h.408v.816h.816v.408h.408v.816h.816v.408h.408v.816h.816V23.9h.408v.816Zm-1.224,0V23.9h-.816v-.408h-.408v-.816h-.816v-.408h-.408v-.816H423.9v-.408h-.408v-.816h-.816v-.408h-.408V19h.408v.816h.816v.408h.408v.816h.816v.408h.408v.816h.816v.408h.408v.816h.816V23.9h.408v.816Zm-1.224,0V23.9h-.816v-.408h-.408v-.816H423.9v-.408h-.408v-.816h-.816v-.408h-.408v-.816h-.816v-.408h-.408V19h.408v.816h.816v.408h.408v.816h.816v.408h.408v.816h.816v.408h.408v.816h.816V23.9h.408v.816Zm-1.224,0V23.9H423.9v-.408h-.408v-.816h-.816v-.408h-.408v-.816h-.816v-.408h-.408v-.816h-.816v-.408h-.408V19h.408v.816h.816v.408h.408v.816h.816v.408h.408v.816h.816v.408h.408v.816h.816V23.9h.408v.816Zm-1.224,0V23.9h-.816v-.408h-.408v-.816h-.816v-.408h-.408v-.816h-.816v-.408h-.408v-.816H419v-.408h.816v.408h.408v.816h.816v.408h.408v.816h.816v.408h.408v.816h.816V23.9h.408v.816Zm-1.224,0V23.9h-.816v-.408h-.408v-.816h-.816v-.408h-.408v-.816H419v-.408h.816v.408h.408v.816h.816v.408h.408v.816h.816V23.9h.408v.816Zm-1.224,0V23.9h-.816v-.408h-.408v-.816H419v-.408h.816v.408h.408v.816h.816V23.9h.408v.816Zm-1.224,0V23.9H419v-.408h.816V23.9h.408v.816ZM484.3,23.9h-.408v-.408h-.408v-.816h-.816v-.408h-.408v-.816h-.816v-.408h-.408v-.816h-.816v-.408h-.408V19h.408v.816h.816v.408h.408v.816h.816v.408h.408v.816h.816v.408h.408v.816h.816V23.9Zm0-1.224h-.408v-.408h-.408v-.816h-.816v-.408h-.408v-.816h-.816v-.408h-.408V19h.408v.816h.816v.408h.408v.816h.816v.408h.408v.816h.816v.408Zm0-1.224h-.408v-.408h-.408v-.816h-.816v-.408h-.408V19h.408v.816h.816v.408h.408v.816h.816v.408Zm0-1.224h-.408v-.408h-.408V19h.408v.816h.816v.408Z" transform="translate(-419 -19)" fill="#dddfe0"/>
      </g>
      <rect id="Rectangle_17" width="6.122" height="6.366" transform="translate(320.771 0.408)" fill="#dddfe0"/>
      <rect id="Rectangle_21" width="5.958" height="5.305" transform="translate(3.673 83.662)" fill="#f0f3f4"/>
      <rect id="Rectangle_22" width="5.958" height="5.305" transform="translate(3.673 737.039)" fill="#f0f3f4"/>
      <rect id="Rectangle_19" width="5.958" height="5.305" transform="translate(400.515 737.855)" fill="#f0f3f4"/>
      <rect id="Rectangle_20" width="5.305" height="5.918" transform="translate(85.702 820.905)" fill="#f0f3f4"/>
      <rect id="Rectangle_25" width="5.958" height="5.305" transform="translate(400.515 83.662)" fill="#f0f3f4"/>
      <path id="Path_15959" data-name="Path 15959" d="M81.359,16.408a58.679,58.679,0,0,0-11.672,1.184,57.1,57.1,0,0,0-10.9,3.387,60.34,60.34,0,0,0-9.835,5.346,59.272,59.272,0,0,0-8.57,7.06,56.713,56.713,0,0,0-7.06,8.57,60.341,60.341,0,0,0-5.346,9.835,57.855,57.855,0,0,0-4.571,22.568V772.22a58.677,58.677,0,0,0,1.184,11.672,57.094,57.094,0,0,0,3.387,10.9,60.336,60.336,0,0,0,5.346,9.835,59.272,59.272,0,0,0,7.06,8.57,56.707,56.707,0,0,0,8.57,7.06,60.335,60.335,0,0,0,9.835,5.346,57.855,57.855,0,0,0,22.568,4.571H356.014a58.68,58.68,0,0,0,11.672-1.184,57.091,57.091,0,0,0,10.9-3.387,60.33,60.33,0,0,0,9.835-5.346,59.266,59.266,0,0,0,8.57-7.06,56.711,56.711,0,0,0,7.06-8.57,60.334,60.334,0,0,0,5.346-9.835,57.855,57.855,0,0,0,4.571-22.568V74.359a58.677,58.677,0,0,0-1.184-11.672,57.1,57.1,0,0,0-3.387-10.9,60.339,60.339,0,0,0-5.346-9.835,59.271,59.271,0,0,0-7.06-8.57,56.713,56.713,0,0,0-8.57-7.06,60.34,60.34,0,0,0-9.835-5.346,57.855,57.855,0,0,0-22.568-4.571H81.359m0-.408H356.014a58.347,58.347,0,0,1,58.359,58.359V772.22a58.347,58.347,0,0,1-58.359,58.359H81.359A58.347,58.347,0,0,1,23,772.22V74.359A58.347,58.347,0,0,1,81.359,16Z" transform="translate(-13.614 -9.47)" fill="#dddfe0"/>
    </g>
    <path id="Place_Your_Design_Here" data-name="Place Your Design Here" d="M376.363,836.052H100.075a43.593,43.593,0,0,1-8.9-.9,44.375,44.375,0,0,1-15.753-6.611,43.79,43.79,0,0,1-15.957-19.385,41.488,41.488,0,0,1-2.571-8.285,43.582,43.582,0,0,1-.9-8.9V92.075a43.582,43.582,0,0,1,.9-8.9,44.373,44.373,0,0,1,6.611-15.753A43.791,43.791,0,0,1,82.894,51.469,41.491,41.491,0,0,1,91.179,48.9a43.582,43.582,0,0,1,8.9-.9h58.155a4.093,4.093,0,0,1,4.081,4.081v5.305A21.632,21.632,0,0,0,183.9,79.016H292.089a22.037,22.037,0,0,0,20.324-13.467,21.3,21.3,0,0,0,1.714-8.57v-4.9A4.093,4.093,0,0,1,318.208,48h58.155a43.582,43.582,0,0,1,8.9.9,44.372,44.372,0,0,1,15.753,6.611,43.79,43.79,0,0,1,15.957,19.385,41.487,41.487,0,0,1,2.571,8.285,43.578,43.578,0,0,1,.9,8.9v699.9a43.579,43.579,0,0,1-.9,8.9,44.372,44.372,0,0,1-6.611,15.753,43.792,43.792,0,0,1-19.385,15.957,41.512,41.512,0,0,1-8.285,2.571A43.593,43.593,0,0,1,376.363,836.052Z" transform="translate(-33.146 -28.411)" fill="#fcfafa"/>
  </g>
</svg>
