<svg xmlns="http://www.w3.org/2000/svg" width="32.345" height="26.321" viewBox="0 0 32.345 26.321">
  <g id="Group_6149" data-name="Group 6149" transform="translate(-1630.968 -6076.981)">
    <path id="_x30_4.Twitter" d="M42.245,20.613a13.6,13.6,0,0,1-3.8,1.051,6.468,6.468,0,0,0,2.911-3.679,13.964,13.964,0,0,1-4.2,1.617,6.636,6.636,0,0,0-11.482,4.528,6.063,6.063,0,0,0,.162,1.5A18.665,18.665,0,0,1,12.2,18.713a6.654,6.654,0,0,0,2.022,8.854,6.367,6.367,0,0,1-2.992-.809,6.7,6.7,0,0,0,5.3,6.59,7.278,7.278,0,0,1-2.992.121,6.658,6.658,0,0,0,6.186,4.609A13.359,13.359,0,0,1,9.9,40.829a18.7,18.7,0,0,0,10.189,2.992c12.21,0,18.841-10.108,18.841-18.841a5.972,5.972,0,0,0-.04-.849,13.161,13.161,0,0,0,3.356-3.517Z" transform="translate(1621.068 6059.481)" fill="#f6b61d"/>
  </g>
</svg>
