<svg xmlns="http://www.w3.org/2000/svg" xmlns:xlink="http://www.w3.org/1999/xlink" width="296.367" height="249.921" viewBox="0 0 296.367 249.921">
  <defs>
    <clipPath id="clip-path">
      <rect id="Rectangle_14" data-name="Rectangle 14" width="193.443" height="257.209" fill="none"/>
    </clipPath>
    <clipPath id="clip-path-3">
      <rect id="Rectangle_11" data-name="Rectangle 11" width="113.965" height="204.989" fill="none"/>
    </clipPath>
    <clipPath id="clip-path-4">
      <path id="Path_16" data-name="Path 16" d="M157.7,104.622a1.185,1.185,0,0,1-.584-.154q-3.127-1.759-6.246-3.5a1.194,1.194,0,1,1,1.166-2.083q3.122,1.747,6.25,3.506a1.194,1.194,0,0,1-.587,2.235" transform="translate(-150.26 -98.728)" fill="none"/>
    </clipPath>
    <linearGradient id="linear-gradient" x1="-8.836" y1="33.843" x2="-8.777" y2="33.843" gradientUnits="objectBoundingBox">
      <stop offset="0" stop-color="#4c5f9b"/>
      <stop offset="0.696" stop-color="#27316f"/>
      <stop offset="1" stop-color="#27316f"/>
    </linearGradient>
    <clipPath id="clip-path-5">
      <path id="Path_17" data-name="Path 17" d="M241.674,306.287a1.194,1.194,0,0,1-.55-2.255,70.427,70.427,0,0,0,11.582-7.532,1.194,1.194,0,1,1,1.492,1.864,72.778,72.778,0,0,1-11.976,7.788,1.188,1.188,0,0,1-.548.134M263.493,288.8a1.194,1.194,0,0,1-.916-1.959,66.266,66.266,0,0,0,5.943-8.355c.607-1.012,1.195-2.055,1.748-3.1a1.194,1.194,0,1,1,2.11,1.117c-.573,1.083-1.182,2.164-1.81,3.212a68.546,68.546,0,0,1-6.158,8.656,1.189,1.189,0,0,1-.917.43m13.1-24.681a1.194,1.194,0,0,1-1.147-1.529,75.029,75.029,0,0,0,2.619-13.581,1.194,1.194,0,1,1,2.376.238,77.507,77.507,0,0,1-2.7,14.014,1.2,1.2,0,0,1-1.146.859m2.883-27.854a1.2,1.2,0,0,1-1.191-1.117,96.286,96.286,0,0,0-1.912-13.758,1.194,1.194,0,1,1,2.336-.5,98.7,98.7,0,0,1,1.959,14.1,1.2,1.2,0,0,1-1.115,1.268l-.078,0M273.721,208.8a1.2,1.2,0,0,1-1.126-.8,113.6,113.6,0,0,0-5.444-12.81,1.194,1.194,0,1,1,2.136-1.066,115.918,115.918,0,0,1,5.56,13.08,1.2,1.2,0,0,1-1.126,1.593M261.19,183.675a1.193,1.193,0,0,1-1-.536c-1.573-2.38-3.249-4.72-4.985-6.954-1.085-1.4-2.222-2.807-3.379-4.184a1.194,1.194,0,0,1,1.83-1.535c1.175,1.4,2.332,2.832,3.436,4.254,1.772,2.282,3.484,4.672,5.09,7.1a1.195,1.195,0,0,1-.995,1.852m-17.977-21.59a1.188,1.188,0,0,1-.842-.347c-3.2-3.173-6.661-6.35-10.3-9.442a1.194,1.194,0,1,1,1.546-1.82c3.688,3.132,7.2,6.351,10.44,9.568a1.194,1.194,0,0,1-.841,2.041m-21.394-18.253a1.185,1.185,0,0,1-.712-.236c-3.567-2.655-7.422-5.37-11.456-8.068a1.194,1.194,0,1,1,1.327-1.985c4.068,2.72,7.956,5.458,11.556,8.138a1.194,1.194,0,0,1-.714,2.152M198.46,128.141a1.187,1.187,0,0,1-.624-.178c-3.71-2.283-7.655-4.637-12.06-7.2a1.194,1.194,0,0,1,1.2-2.065c4.423,2.57,8.385,4.933,12.112,7.228a1.194,1.194,0,0,1-.627,2.211" transform="translate(-185.181 -118.541)" fill="none"/>
    </clipPath>
    <linearGradient id="linear-gradient-2" x1="-1.022" y1="1.036" x2="-1.016" y2="1.036" xlink:href="#linear-gradient"/>
    <clipPath id="clip-path-6">
      <path id="Path_18" data-name="Path 18" d="M252.982,482.747a1.194,1.194,0,0,1-.2-2.371,65.836,65.836,0,0,0,6.861-1.549,1.194,1.194,0,0,1,.65,2.3,68.242,68.242,0,0,1-7.112,1.6,1.119,1.119,0,0,1-.2.017" transform="translate(-251.789 -478.781)" fill="none"/>
    </clipPath>
    <linearGradient id="linear-gradient-3" x1="-13.861" y1="1.001" x2="-13.806" y2="1.001" xlink:href="#linear-gradient"/>
    <clipPath id="clip-path-7">
      <rect id="Rectangle_4187" data-name="Rectangle 4187" width="23.126" height="21.219" transform="translate(0 0)" fill="#b5b7ca"/>
    </clipPath>
  </defs>
  <g id="Group_6094" data-name="Group 6094" transform="translate(-282.816 -687.888)">
    <g id="Group_24" data-name="Group 24" transform="translate(579.184 750.112) rotate(104)">
      <g id="Group_23" data-name="Group 23" clip-path="url(#clip-path)">
        <g id="Group_22" data-name="Group 22">
          <g id="Group_21" data-name="Group 21" clip-path="url(#clip-path)">
            <g id="Group_17" data-name="Group 17" transform="translate(79.478 52.221)" opacity="0.34">
              <g id="Group_16" data-name="Group 16">
                <g id="Group_15" data-name="Group 15" clip-path="url(#clip-path-3)">
                  <g id="Group_10" data-name="Group 10" transform="translate(0 0)">
                    <g id="Group_9" data-name="Group 9" clip-path="url(#clip-path-4)">
                      <rect id="Rectangle_8" data-name="Rectangle 8" width="8.976" height="6.062" transform="translate(-0.17 -0.169)" fill="url(#linear-gradient)"/>
                    </g>
                  </g>
                  <g id="Group_12" data-name="Group 12" transform="translate(18.471 10.48)">
                    <g id="Group_11" data-name="Group 11" clip-path="url(#clip-path-5)">
                      <rect id="Rectangle_9" data-name="Rectangle 9" width="95.703" height="187.915" transform="translate(-0.169 -0.169)" fill="url(#linear-gradient-2)"/>
                    </g>
                  </g>
                  <g id="Group_14" data-name="Group 14" transform="translate(53.702 201.023)">
                    <g id="Group_13" data-name="Group 13" clip-path="url(#clip-path-6)">
                      <rect id="Rectangle_10" data-name="Rectangle 10" width="9.601" height="4.099" transform="translate(-0.093 -0.134)" fill="url(#linear-gradient-3)"/>
                    </g>
                  </g>
                </g>
              </g>
            </g>
          </g>
        </g>
      </g>
    </g>
    <g id="Group_6093" data-name="Group 6093" transform="translate(496 802.239)">
      <g id="Group_6092" data-name="Group 6092" transform="translate(0 0)" clip-path="url(#clip-path-7)">
        <path id="Path_15960" data-name="Path 15960" d="M23.018,2.071A2.117,2.117,0,0,0,20.387.063c-6.46,1.028-13.061,1.5-19.311,3.518a1.465,1.465,0,1,0,.778,2.825C7.482,5.216,13.172,5.068,18.846,4.422c0,2.133,0,4.273-.109,6.413-.1,2.919-.7,5.861-.366,8.764.163,1.37,2.249,2.428,2.966.778C23.765,14.945,23.018,7.925,23.018,2.071Z" transform="translate(0 0)" fill="#b5b7ca"/>
      </g>
    </g>
  </g>
</svg>
