<svg xmlns="http://www.w3.org/2000/svg" xmlns:xlink="http://www.w3.org/1999/xlink" width="66.259" height="76.048" viewBox="0 0 66.259 76.048">
  <defs>
    <clipPath id="clip-path">
      <path id="Path_6885" data-name="Path 6885" d="M0,0Q.214,18.355.426,36.708q11.6-.012,23.2-.02L8.5,20.323H23.664l8.419,9.106q1.174-1.269,2.35-2.538L59.361,0Z" fill="#f6b61d"/>
    </clipPath>
    <clipPath id="clip-path-2">
      <path id="Path_6886" data-name="Path 6886" d="M57.51,143.073l-3.787,4.083,16.1,17.414H54.652l-8.525-9.222q-13.946,15.053-27.9,30.1H59.012a21.188,21.188,0,0,0,0-42.375Z" transform="translate(-18.231 -143.073)" fill="#f6b61d"/>
    </clipPath>
  </defs>
  <g id="Group_6114" data-name="Group 6114" transform="translate(-140 -27.57)">
    <g id="Group_5138" data-name="Group 5138" transform="translate(140 27.57)">
      <g id="Group_5135" data-name="Group 5135">
        <g id="Group_5134" data-name="Group 5134" clip-path="url(#clip-path)">
          <rect id="Rectangle_3982" data-name="Rectangle 3982" width="59.361" height="36.708" transform="translate(0 0)" fill="#f6b61d"/>
        </g>
      </g>
      <g id="Group_5137" data-name="Group 5137" transform="translate(4.291 33.673)">
        <g id="Group_5136" data-name="Group 5136" clip-path="url(#clip-path-2)">
          <rect id="Rectangle_3983" data-name="Rectangle 3983" width="73.782" height="73.782" transform="translate(-21.188 21.188) rotate(-45)" fill="#f6b61d"/>
        </g>
      </g>
      <g id="Group_6104" data-name="Group 6104">
        <g id="Group_5134-2" data-name="Group 5134" clip-path="url(#clip-path)">
          <rect id="Rectangle_3982-2" data-name="Rectangle 3982" width="59.361" height="36.708" transform="translate(0 0)" fill="#f6b61d"/>
        </g>
      </g>
      <g id="Group_6105" data-name="Group 6105" transform="translate(4.291 33.673)">
        <g id="Group_5136-2" data-name="Group 5136" clip-path="url(#clip-path-2)">
          <rect id="Rectangle_3983-2" data-name="Rectangle 3983" width="73.782" height="73.782" transform="translate(-21.188 21.188) rotate(-45)" fill="#f6b61d"/>
        </g>
      </g>
    </g>
  </g>
</svg>
