<svg xmlns="http://www.w3.org/2000/svg" width="33.16" height="28.872" viewBox="0 0 33.16 28.872">
  <g id="Group_6150" data-name="Group 6150" transform="translate(-1571.536 -6075.981)">
    <g id="XMLID_496_" transform="translate(1571.536 6075.981)">
      <path id="XMLID_497_" d="M.586,33.244,8.227,36.1l2.957,9.511a.9.9,0,0,0,1.429.43l4.259-3.472a1.271,1.271,0,0,1,1.549-.043L26.1,48.1a.9.9,0,0,0,1.411-.544l5.627-27.069a.9.9,0,0,0-1.206-1.023L.577,31.559A.9.9,0,0,0,.586,33.244Zm10.122,1.334,14.933-9.2a.26.26,0,0,1,.314.412L13.63,37.248a2.555,2.555,0,0,0-.792,1.529l-.42,3.111a.386.386,0,0,1-.754.055L10.05,36.269A1.5,1.5,0,0,1,10.707,34.578Z" transform="translate(0 -19.401)" fill="#f6b61d"/>
    </g>
  </g>
</svg>
