<svg xmlns="http://www.w3.org/2000/svg" width="147.753" height="143.292" viewBox="0 0 147.753 143.292">
  <g id="Group_6146" data-name="Group 6146" transform="translate(-743.02 -3429.193)">
    <g id="tinder" transform="matrix(0.839, 0.545, -0.545, 0.839, 803.553, 3429.181)">
      <path id="Path_15935" data-name="Path 15935" d="M49.878,111.181A49.835,49.835,0,0,1,.025,61.476c0-14.613,7.479-25.01,11.937-29.907A12.178,12.178,0,0,1,32.512,35.9a4.592,4.592,0,0,1,.219,1.038,2.121,2.121,0,0,0,1.068.921,2.221,2.221,0,0,0,1.871-.1C42.6,34.138,43.5,25.783,44.4,12.451l.086-1.27a12.009,12.009,0,0,1,18.85-9.009C80.327,13.961,88.384,31.65,91.674,41.145a4.343,4.343,0,0,1-8.206,2.844c-2.944-8.5-10.117-24.3-25.082-34.682a3.3,3.3,0,0,0-3.379-.273,3.225,3.225,0,0,0-1.855,2.737l-.086,1.263c-.445,6.6-.865,12.838-2.476,18.3-1.976,6.7-5.54,11.32-10.9,14.12a10.919,10.919,0,0,1-9.106.469,10.8,10.8,0,0,1-6.227-6.52,4.7,4.7,0,0,1-.233-1.126,3.467,3.467,0,0,0-2.457-1.934,3.418,3.418,0,0,0-3.285,1.068C15.475,40.609,8.71,49.35,8.71,61.475A41.184,41.184,0,0,0,67.043,98.754a4.343,4.343,0,0,1,3.624,7.893,49.451,49.451,0,0,1-20.79,4.534Z" fill="#fff"/>
      <path id="Path_15936" data-name="Path 15936" d="M315.909,136.8a13.759,13.759,0,0,1-8.256-2.73c-10.031-7.511-15.435-16.507-15.627-26.015,0-.029,0-.059,0-.088a14.107,14.107,0,0,1,23.884-10.205,14.107,14.107,0,0,1,23.884,10.205c0,.029,0,.059,0,.088-.192,9.508-5.6,18.5-15.627,26.015A13.765,13.765,0,0,1,315.909,136.8Zm-15.2-28.873c.2,8.488,6.711,15.12,12.148,19.191a5.118,5.118,0,0,0,6.1,0c5.437-4.071,11.953-10.7,12.148-19.191a5.428,5.428,0,0,0-10.856.01,4.343,4.343,0,1,1-8.685,0,5.428,5.428,0,0,0-10.856-.01Zm28.227-51.5a5.428,5.428,0,0,0-10.857.017c.106,5.185,3.589,9.4,7.716,12.459a5.285,5.285,0,0,0,6.282,0c4.127-3.063,7.61-7.274,7.716-12.459a5.428,5.428,0,0,0-10.857-.017" transform="translate(-228.598 -39.967)" fill="#fff"/>
    </g>
  </g>
</svg>
