<svg xmlns="http://www.w3.org/2000/svg" width="320.143" height="11.154" viewBox="0 0 320.143 11.154">
  <g id="Group_6108" data-name="Group 6108" transform="translate(-2725.663 -2085.753)">
    <path id="Path_35" data-name="Path 35" d="M339.481,17.16h14.376a3.94,3.94,0,0,1,2.092.363,2.469,2.469,0,0,1,1.026,1.027,3.938,3.938,0,0,1,.363,2.092v4.191a3.938,3.938,0,0,1-.363,2.092,2.469,2.469,0,0,1-1.026,1.027,3.94,3.94,0,0,1-2.092.363H339.481a3.94,3.94,0,0,1-2.092-.363,2.468,2.468,0,0,1-1.026-1.027A3.938,3.938,0,0,1,336,24.833V20.641a3.938,3.938,0,0,1,.363-2.092,2.468,2.468,0,0,1,1.026-1.027A3.94,3.94,0,0,1,339.481,17.16Zm0,.97a3.157,3.157,0,0,0-1.634.248,1.5,1.5,0,0,0-.629.629,3.161,3.161,0,0,0-.248,1.635v4.191a3.161,3.161,0,0,0,.248,1.635,1.5,1.5,0,0,0,.629.629,3.157,3.157,0,0,0,1.634.248h14.376a3.157,3.157,0,0,0,1.634-.248,1.5,1.5,0,0,0,.628-.629,3.161,3.161,0,0,0,.248-1.635V20.641a3.161,3.161,0,0,0-.248-1.635,1.5,1.5,0,0,0-.628-.629,3.157,3.157,0,0,0-1.634-.248Zm20.282,4.549c0,1.2-1.455,1.94-1.455,1.94v-3.88S359.763,21.479,359.763,22.679Z" transform="translate(2686.043 2068.593)" fill-rule="evenodd" opacity="0.36"/>
    <rect id="Rectangle_17" data-name="Rectangle 17" width="17.459" height="7.436" rx="1.6" transform="translate(3023.983 2087.612)"/>
    <path id="Path_36" data-name="Path 36" d="M323.069,19.627a8.449,8.449,0,0,1,5.822,2.326.3.3,0,0,0,.424,0l1.131-1.141a.315.315,0,0,0,0-.446,10.658,10.658,0,0,0-14.749,0,.315.315,0,0,0,0,.446l1.131,1.141a.3.3,0,0,0,.424,0A8.452,8.452,0,0,1,323.069,19.627Zm0,3.712a4.8,4.8,0,0,1,3.221,1.242.3.3,0,0,0,.424-.006l1.129-1.141a.313.313,0,0,0,.092-.225.318.318,0,0,0-.1-.223,7,7,0,0,0-9.538,0,.31.31,0,0,0-.1.224.315.315,0,0,0,.091.225l1.129,1.141a.3.3,0,0,0,.424.006A4.8,4.8,0,0,1,323.069,23.34Zm2.17,2.723a.307.307,0,0,0-.009-.447,3.347,3.347,0,0,0-4.323,0,.31.31,0,0,0-.1.221.3.3,0,0,0,.092.226l1.953,1.971a.3.3,0,0,0,.434,0Z" transform="translate(2686.657 2068.585)" fill-rule="evenodd"/>
    <path id="Path_37" data-name="Path 37" d="M307.2,18.537a2.933,2.933,0,0,0-.022.518v7.468a2.933,2.933,0,0,0,.022.518,1.164,1.164,0,0,0,.915.914,6,6,0,0,0,1.036,0,1.164,1.164,0,0,0,.915-.914,2.929,2.929,0,0,0,.022-.518V19.055a2.929,2.929,0,0,0-.022-.518,1.164,1.164,0,0,0-.915-.914,6,6,0,0,0-1.036,0A1.165,1.165,0,0,0,307.2,18.537Zm-4.581,2.846a2.933,2.933,0,0,1,.022-.518,1.165,1.165,0,0,1,.915-.914,6,6,0,0,1,1.036,0,1.164,1.164,0,0,1,.915.914,2.929,2.929,0,0,1,.022.518v5.141a2.929,2.929,0,0,1-.022.518,1.165,1.165,0,0,1-.915.915,6.025,6.025,0,0,1-1.036,0,1.165,1.165,0,0,1-.915-.915,2.933,2.933,0,0,1-.022-.518ZM298.178,23.1a2.929,2.929,0,0,0-.022.518v2.91a2.929,2.929,0,0,0,.022.518,1.165,1.165,0,0,0,.915.915,6.025,6.025,0,0,0,1.036,0,1.165,1.165,0,0,0,.915-.915,2.933,2.933,0,0,0,.022-.518v-2.91a2.933,2.933,0,0,0-.022-.518,1.165,1.165,0,0,0-.915-.914,6,6,0,0,0-1.036,0A1.165,1.165,0,0,0,298.178,23.1Zm-4.656,1.94a2.933,2.933,0,0,0-.022.518v.97a2.933,2.933,0,0,0,.022.518,1.165,1.165,0,0,0,.915.915,6.024,6.024,0,0,0,1.036,0,1.165,1.165,0,0,0,.915-.915,2.929,2.929,0,0,0,.022-.518v-.97a2.929,2.929,0,0,0-.022-.518,1.165,1.165,0,0,0-.915-.914,6,6,0,0,0-1.036,0A1.165,1.165,0,0,0,293.522,25.035Z" transform="translate(2687.321 2068.58)" fill-rule="evenodd"/>
    <path id="Path_38" data-name="Path 38" d="M34.238,17.168a3.581,3.581,0,0,0-3.808,3.6v.014a3.244,3.244,0,0,0,3.346,3.381,2.806,2.806,0,0,0,2.678-1.527H36.6c-.035,2.074-.71,3.786-2.4,3.786a1.816,1.816,0,0,1-1.8-1.186l-.021-.071h-1.8l.014.078A3.494,3.494,0,0,0,34.2,27.93c2.579,0,4.135-2.046,4.135-5.5v-.014C38.33,18.723,36.426,17.168,34.238,17.168Zm-.007,5.591a1.955,1.955,0,0,1-2.01-2.039v-.014a2.029,2.029,0,1,1,4.056.043v.014A1.97,1.97,0,0,1,34.231,22.758Zm7.164-1.726a1.122,1.122,0,1,0-1.129-1.122A1.1,1.1,0,0,0,41.395,21.032Zm0,5.271a1.122,1.122,0,1,0-1.129-1.122A1.1,1.1,0,0,0,41.395,26.3Zm8.038,1.371h1.755V25.706h1.378V24.193H51.188v-6.77H48.595C47.2,19.54,45.746,21.9,44.418,24.208v1.5h5.015Zm-3.31-3.438v-.107c.995-1.74,2.181-3.637,3.232-5.243h.106v5.349Zm10.531,3.438h1.833V17.423H56.661l-2.678,1.883v1.726l2.55-1.8h.121Z" transform="translate(2695.233 2068.593)"/>
  </g>
</svg>
