<svg xmlns="http://www.w3.org/2000/svg" width="116" height="116" viewBox="0 0 116 116">
  <g id="Group_6133" data-name="Group 6133" transform="translate(-2121.093 -3094)">
    <g id="Group_1" data-name="Group 1" transform="translate(2121.463 3093.615)" opacity="0.5">
      <path id="Rectangle_667" data-name="Rectangle 667" d="M58,0h0a58,58,0,0,1,58,58v58a0,0,0,0,1,0,0H58A58,58,0,0,1,0,58v0A58,58,0,0,1,58,0Z" transform="translate(-0.37 0.385)" fill="#f6b61d"/>
    </g>
    <g id="chat-arrow-grow" transform="translate(2161.048 3133.973)">
      <path id="Path_15926" data-name="Path 15926" d="M31.323,3.976H26.682a1.5,1.5,0,0,0-1.063,2.567l1.633,1.633h0L21.86,13.567a1.54,1.54,0,0,1-2.128,0l-.256-.257a4.618,4.618,0,0,0-6.38,0L5.427,20.979A1.509,1.509,0,0,0,7.563,23.11l7.669-7.669a1.538,1.538,0,0,1,2.128,0l.256.257a4.621,4.621,0,0,0,6.38,0l5.392-5.392h0l1.633,1.633a1.5,1.5,0,0,0,2.556-1.066V6.232a2.256,2.256,0,0,0-2.256-2.256Z" transform="translate(2.512 2.003)" fill="#fff"/>
      <path id="Path_15927" data-name="Path 15927" d="M34.586,33.046H7.519a4.511,4.511,0,0,1-4.511-4.511V1.5A1.5,1.5,0,0,0,0,1.5V28.535a7.528,7.528,0,0,0,7.519,7.519H34.586a1.5,1.5,0,1,0,0-3.007Z" fill="#fff"/>
    </g>
  </g>
</svg>
