<svg xmlns="http://www.w3.org/2000/svg" xmlns:xlink="http://www.w3.org/1999/xlink" width="126.184" height="214.511" viewBox="0 0 126.184 214.511">
  <defs>
    <clipPath id="clip-path">
      <rect id="Rectangle_4186" data-name="Rectangle 4186" width="62.78" height="205.254" transform="translate(0 0)" fill="#5c5c61"/>
    </clipPath>
  </defs>
  <g id="Group_6050" data-name="Group 6050" transform="translate(66.824) rotate(19)" opacity="0.229">
    <g id="Group_6048" data-name="Group 6048" transform="translate(0 0)" clip-path="url(#clip-path)">
      <path id="Path_15924" data-name="Path 15924" d="M38.962,108.073C33.679,97.809,27.236,97.305,19.135,99.46a8.314,8.314,0,0,0-5.82,9.682c.737,4.386,4.549,7.784,8.45,7.279a36.585,36.585,0,0,0,6.462-1.3c4.116-1.317,7.3-4.253,10.735-7.046M21.395,137.831c-6.829-.776-12.794,5.991-12.646,11.324.146,5.29,6.181,11.054,11.782,7.718A66.209,66.209,0,0,0,32.6,148.19c1.541-1.467,1.6-2.3.135-3.963a21.475,21.475,0,0,0-11.344-6.4M33.025,53.017c-6.788-.106-10.993,3.324-11.983,9.415C19.8,70.111,25.785,76.819,33.229,75.974A23.931,23.931,0,0,0,46.388,70.2c1.857-1.6,1.983-2.025,1.008-4.226a32.025,32.025,0,0,0-6.2-9.159c-2.425-2.544-5.176-3.888-8.171-3.8m7.808,58.417c-3.724,2.152-7.085,4.5-10.748,6.121-5.884,2.607-11.585,2.225-16.631-2.438-3.5-3.232-4.3-7.129-3.008-11.637,1.328-4.643,4.513-7.046,8.992-7.646,8.712-1.164,15.92,1.534,21.128,9.133a1.775,1.775,0,0,0,.484.359c8.058-6.2,12.21-22.431,8.206-32.617-2.862,1.441-5.618,3.188-8.6,4.256-6.111,2.186-12.373,2.908-17.832-1.652-5.956-4.974-7.262-12.171-3.977-19.152,1.74-3.7,5.291-5.123,8.957-5.651a23.507,23.507,0,0,1,7.2.309c6.258,1.07,10.191,5.508,13.565,10.608.79,1.193,1.41,2.507,2.3,4.115A38.622,38.622,0,0,0,53.31,62.2c4.483-7.82,6.859-16.171,5.774-25.357a84.36,84.36,0,0,0-6.64-25.25C50.17,6.6,46.476,3.05,41.013,1.909c-.144-.03-.238-.3-.457-.6C41.167-.04,42.3-.162,43.524.118A16.077,16.077,0,0,1,55.387,10.2c1.375,3.35,2.765,6.72,3.8,10.191C61.822,29.2,63.7,38.154,62.308,47.458a45.089,45.089,0,0,1-8.5,19.808,4.877,4.877,0,0,0-.893,4.822,35.5,35.5,0,0,1-.23,20.979,37.543,37.543,0,0,1-7.8,13.642c-1.926,2.177-1.863,2.119-.45,4.725,4.763,8.775,4.977,17.69.336,26.561a46.487,46.487,0,0,1-4.954,7.449,4.18,4.18,0,0,0-.787,4.741c2.8,7.523,2.983,15.128-.545,22.475a40.66,40.66,0,0,1-4.562,6.922,54.165,54.165,0,0,1-13.367,12.578c-2.042,1.335-3.981,2.842-5.965,4.268-.475.341-.953.672-1.43,1.007l.407.562c2.626-.623,5.244-1.282,7.882-1.854,1.733-.378,3.176,0,3.938,2.294-7.678,2.265-15.278,4.5-23.1,6.811-2.762-1.363-2.808-1.622-1.279-4.409C4.6,194.3,7.757,187.571,9.1,180.083a10.1,10.1,0,0,1,.46-1.409c2.782.264,3.582.98,2.962,3.378-1.092,4.216-2.5,8.344-3.82,12.5A27.5,27.5,0,0,1,7.505,197.2a7.58,7.58,0,0,0,2.176-.659c4.035-3.107,7.984-6.338,12.041-9.415A44.159,44.159,0,0,0,34.84,171.174c3.238-6.631,3.369-13.561.951-20.907-.832.616-1.471,1.043-2.059,1.53-3.537,2.941-7.08,5.857-11.323,7.689a10,10,0,0,1-9.835-.833A19.382,19.382,0,0,1,6.44,152.7,8.012,8.012,0,0,1,5.9,144.7a19.127,19.127,0,0,1,5.625-7.931,9.518,9.518,0,0,1,9.115-1.82,33.992,33.992,0,0,1,15.286,8.99c7.373-6.737,12.471-21.437,4.9-32.5" transform="translate(0 0.005)" fill="#5c5c61" fill-rule="evenodd"/>
    </g>
  </g>
</svg>
