<svg xmlns="http://www.w3.org/2000/svg" width="270.369" height="70.236" viewBox="0 0 270.369 70.236">
  <g id="Group_6115" data-name="Group 6115" transform="translate(-19.636 -498.325)">
    <rect id="Rectangle_16" data-name="Rectangle 16" width="270.369" height="70.236" rx="20" transform="translate(19.636 498.325)" fill="#fff"/>
    <path id="Path_27" data-name="Path 27" d="M83.221,577.005a1.848,1.848,0,0,1-.776.747,2.926,2.926,0,0,1-1.368.281H79.856v2.735H78.75v-6.741h2.328a2.861,2.861,0,0,1,1.309.272,1.794,1.794,0,0,1,.805.718A3.91,3.91,0,0,1,83.221,577.005Zm-2.144.126a1.366,1.366,0,0,0,.941-.281,1.063,1.063,0,0,0,.31-.815q0-1.106-1.251-1.106H79.856v2.2Zm2.912.941a2.994,2.994,0,0,1,.33-1.426,2.462,2.462,0,0,1,2.192-1.309,2.272,2.272,0,0,1,1.1.252,2.184,2.184,0,0,1,.757.611v-.776H89.48v5.344H88.364v-.8a2.194,2.194,0,0,1-.766.63,2.5,2.5,0,0,1-2.367-.1,2.6,2.6,0,0,1-.912-.989A3.11,3.11,0,0,1,83.99,578.072Zm4.374.019a1.9,1.9,0,0,0-.233-.96,1.586,1.586,0,0,0-2.784-.01,1.912,1.912,0,0,0-.223.951,2.026,2.026,0,0,0,.223.97,1.687,1.687,0,0,0,.6.64,1.592,1.592,0,0,0,.8.213,1.555,1.555,0,0,0,1.387-.834A1.959,1.959,0,0,0,88.364,578.091Zm3.513-1.891a1.708,1.708,0,0,1,.64-.63,1.9,1.9,0,0,1,.96-.233v1.145H93.2a1.362,1.362,0,0,0-.989.33,1.593,1.593,0,0,0-.33,1.145v2.813H90.772v-5.344h1.106Zm3.019-1.484a.708.708,0,1,1,0-1.416.674.674,0,0,1,.495.2.726.726,0,0,1,0,1.009A.674.674,0,0,1,94.9,574.716Zm.543.708v5.344H94.334v-5.344Zm3.231,5.432a2.783,2.783,0,0,1-1.135-.223,2.048,2.048,0,0,1-.786-.621,1.571,1.571,0,0,1-.31-.883h1.145a.8.8,0,0,0,.32.572,1.221,1.221,0,0,0,.747.223,1.251,1.251,0,0,0,.718-.175.552.552,0,0,0,.262-.466.472.472,0,0,0-.291-.446,5.163,5.163,0,0,0-.9-.32,8.642,8.642,0,0,1-.98-.32,1.762,1.762,0,0,1-.66-.475,1.26,1.26,0,0,1-.272-.844,1.3,1.3,0,0,1,.252-.776,1.665,1.665,0,0,1,.718-.563,2.736,2.736,0,0,1,1.086-.2,2.2,2.2,0,0,1,1.464.466,1.628,1.628,0,0,1,.6,1.251H99.544a.788.788,0,0,0-.291-.572,1.086,1.086,0,0,0-.708-.213,1.152,1.152,0,0,0-.669.165.51.51,0,0,0-.233.436.472.472,0,0,0,.155.359,1.17,1.17,0,0,0,.378.233q.223.077.66.2a6.516,6.516,0,0,1,.95.32,1.723,1.723,0,0,1,.65.465,1.24,1.24,0,0,1,.281.825,1.379,1.379,0,0,1-.252.815,1.664,1.664,0,0,1-.718.563A2.619,2.619,0,0,1,98.672,580.856Zm4.294-1.416-1.174,2.677h-.718l.689-2.677Zm7.133-5.412v.9h-2.861v1.988h2.231v.9h-2.231v2.949h-1.106v-6.741Zm1.97,2.173a1.712,1.712,0,0,1,.64-.63,1.9,1.9,0,0,1,.96-.233v1.145h-.281a1.365,1.365,0,0,0-.989.33,1.6,1.6,0,0,0-.33,1.145v2.813h-1.106v-5.344h1.106Zm2.088,1.872a2.991,2.991,0,0,1,.33-1.426,2.462,2.462,0,0,1,2.192-1.309,2.273,2.273,0,0,1,1.1.252,2.177,2.177,0,0,1,.757.611v-.776h1.115v5.344h-1.115v-.8a2.193,2.193,0,0,1-.766.63,2.5,2.5,0,0,1-2.367-.1,2.6,2.6,0,0,1-.912-.989A3.106,3.106,0,0,1,114.156,578.072Zm4.374.019a1.9,1.9,0,0,0-.233-.96,1.586,1.586,0,0,0-2.784-.01,1.916,1.916,0,0,0-.223.951,2.031,2.031,0,0,0,.223.97,1.69,1.69,0,0,0,.6.64,1.591,1.591,0,0,0,.8.213,1.555,1.555,0,0,0,1.387-.834A1.959,1.959,0,0,0,118.531,578.091Zm5.1-2.755a2.366,2.366,0,0,1,1.125.262,1.853,1.853,0,0,1,.786.776,2.545,2.545,0,0,1,.281,1.242v3.152h-1.1v-2.987a1.532,1.532,0,0,0-.359-1.1,1.266,1.266,0,0,0-.98-.388,1.3,1.3,0,0,0-.989.388,1.537,1.537,0,0,0-.359,1.1v2.987h-1.106v-5.344h1.106v.611a1.846,1.846,0,0,1,.689-.514A2.249,2.249,0,0,1,123.634,575.337Zm3.075,2.755a3.032,3.032,0,0,1,.33-1.445,2.4,2.4,0,0,1,.931-.97,2.681,2.681,0,0,1,1.358-.339,2.625,2.625,0,0,1,1.6.466,2.238,2.238,0,0,1,.863,1.309H130.6a1.261,1.261,0,0,0-.466-.621,1.378,1.378,0,0,0-.805-.223,1.348,1.348,0,0,0-1.086.485,2.026,2.026,0,0,0-.4,1.339,2.065,2.065,0,0,0,.4,1.348,1.347,1.347,0,0,0,1.086.485,1.228,1.228,0,0,0,1.271-.844h1.193a2.411,2.411,0,0,1-.873,1.3,2.593,2.593,0,0,1-1.591.475,2.681,2.681,0,0,1-1.358-.34,2.482,2.482,0,0,1-.931-.97A3.088,3.088,0,0,1,126.709,578.091Zm10.922-.126a3.538,3.538,0,0,1-.039.543h-4.083a1.479,1.479,0,0,0,.475,1.028,1.5,1.5,0,0,0,1.048.388,1.3,1.3,0,0,0,1.261-.747h1.193a2.425,2.425,0,0,1-.883,1.212,2.575,2.575,0,0,1-1.571.466,2.791,2.791,0,0,1-1.377-.34,2.53,2.53,0,0,1-.951-.97,3.309,3.309,0,0,1-.01-2.9,2.38,2.38,0,0,1,.941-.97,2.832,2.832,0,0,1,1.4-.339,2.719,2.719,0,0,1,1.348.33,2.332,2.332,0,0,1,.921.931A2.77,2.77,0,0,1,137.631,577.965Zm-1.154-.349a1.26,1.26,0,0,0-.436-.98,1.564,1.564,0,0,0-1.057-.369,1.41,1.41,0,0,0-.98.369,1.5,1.5,0,0,0-.485.98Z" transform="translate(-29.526 -33.885)"/>
    <circle id="Ellipse_8" data-name="Ellipse 8" cx="15.104" cy="15.104" r="15.104" transform="translate(243.181 517.961)" fill="#f6b61d"/>
    <path id="Path_28" data-name="Path 28" d="M288.977,566.107a.727.727,0,1,0,0,1.455Zm12.153,1.242a.726.726,0,0,0,0-1.028l-4.629-4.63a.727.727,0,0,0-1.028,1.028l4.114,4.115-4.114,4.115a.727.727,0,0,0,1.028,1.028Zm-12.153.213h11.639v-1.455H288.977Z" transform="translate(-35.827 -33.53)" fill="#fff"/>
    <path id="Path_29" data-name="Path 29" d="M70.9,573.8a3.377,3.377,0,0,1,3.377,3.377c0,1.427-1,2.982-2.983,4.683a.609.609,0,0,1-.791,0l-.131-.114c-1.892-1.656-2.851-3.174-2.851-4.568A3.377,3.377,0,0,1,70.9,573.8Zm0,2.078a1.3,1.3,0,1,0,.919.381A1.3,1.3,0,0,0,70.9,575.882Z" transform="translate(-29.188 -33.9)" fill="#f6b61d"/>
    <text id="William_Gibbs" data-name="William Gibbs" transform="translate(38.516 528.451)" font-size="12" font-family="Inter-Black, Inter" font-weight="800" letter-spacing="-0.02em"><tspan x="0" y="0">William Gibbs</tspan></text>
  </g>
</svg>
