<svg xmlns="http://www.w3.org/2000/svg" xmlns:xlink="http://www.w3.org/1999/xlink" width="1920" height="848" viewBox="0 0 1920 848">
  <defs>
    <clipPath id="clip-path">
      <rect id="Rectangle_4190" data-name="Rectangle 4190" width="1920" height="848" transform="translate(0 4572)" fill="#fff" stroke="#707070" stroke-width="1"/>
    </clipPath>
    <clipPath id="clip-path-2">
      <path id="Mask" d="M736.8,1892.575c226.149-60.687,391.081-258.953,581.43-382.192,125.33-81.139,263.411-129.592,401.951-188.6,352.219-150.009,702.957-385.52,635.3-744.59-56.375-299.244-419.575-599.35-819.7-586.189-138.394,4.561-254.865,51.336-356.679,117.446-61.135,39.683-119.417,100.994-203.953,111.523C885.991,231.07,788.4,184.693,707.545,156.72,587.216,115.044,460.516,71.661,329.9,68.871,30.208,62.454-35.408,252.849,11.074,486.423c22.6,113.547,63.13,223.12,93.168,334.994,42.608,158.654,18.637,302.131-9.374,461.888-24.947,142.265-34.793,298.686,51.843,418.308C245.016,1837.348,510.654,1953.263,736.8,1892.575Z" transform="translate(113.139 0) rotate(3)" fill="#efedf5"/>
    </clipPath>
  </defs>
  <g id="Mask_Group_1" data-name="Mask Group 1" transform="translate(0 -4572)" clip-path="url(#clip-path)">
    <g id="Image" transform="matrix(-0.883, -0.469, 0.469, -0.883, 1571.277, 6741.407)">
      <path id="Mask-2" data-name="Mask" d="M736.8,1892.575c226.149-60.687,391.081-258.953,581.43-382.192,125.33-81.139,263.411-129.592,401.951-188.6,352.219-150.009,702.956-385.52,635.3-744.59-56.375-299.244-419.575-599.35-819.7-586.189-138.394,4.561-254.865,51.336-356.679,117.446-61.135,39.683-119.417,100.994-203.953,111.523C885.991,231.07,788.4,184.693,707.545,156.72,587.216,115.044,460.516,71.661,329.9,68.871,30.208,62.454-35.408,252.849,11.075,486.423c22.6,113.547,63.13,223.12,93.168,334.994,42.608,158.654,18.637,302.131-9.374,461.888-24.947,142.265-34.793,298.686,51.843,418.308C245.016,1837.348,510.654,1953.263,736.8,1892.575Z" transform="translate(113.139 0) rotate(3)" fill="#efedf5"/>
    </g>
  </g>
</svg>
