<svg xmlns="http://www.w3.org/2000/svg" xmlns:xlink="http://www.w3.org/1999/xlink" width="1920" height="858" viewBox="0 0 1920 858">
  <defs>
    <clipPath id="clip-path">
      <rect id="Rectangle_4191" data-name="Rectangle 4191" width="1920" height="858" fill="#fff" stroke="#707070" stroke-width="1"/>
    </clipPath>
    <clipPath id="clip-path-2">
      <path id="Mask" d="M736.8,1892.575c226.149-60.687,391.081-258.953,581.43-382.192,125.33-81.139,263.411-129.592,401.951-188.6,352.219-150.009,702.957-385.52,635.3-744.59-56.375-299.244-419.575-599.35-819.7-586.189-138.394,4.561-254.865,51.336-356.679,117.446-61.135,39.683-119.417,100.994-203.953,111.523C885.991,231.07,788.4,184.693,707.545,156.72,587.216,115.044,460.516,71.661,329.9,68.871,30.208,62.454-35.408,252.849,11.074,486.423c22.6,113.547,63.13,223.12,93.168,334.994,42.608,158.654,18.637,302.131-9.374,461.888-24.947,142.265-34.793,298.686,51.843,418.308C245.016,1837.348,510.654,1953.263,736.8,1892.575Z" transform="translate(113.139 0) rotate(3)" fill="#fdd32a"/>
    </clipPath>
    <linearGradient id="linear-gradient" x1="-0.394" y1="1.285" x2="0.59" y2="0.37" gradientUnits="objectBoundingBox">
      <stop offset="0" stop-color="#fdd32a"/>
      <stop offset="1" stop-color="#ffc0c0" stop-opacity="0"/>
    </linearGradient>
  </defs>
  <g id="Mask_Group_2" data-name="Mask Group 2" clip-path="url(#clip-path)">
    <g id="Group_6128" data-name="Group 6128">
      <g id="Image" transform="translate(169.358 -1228.607) rotate(25)" opacity="0.068">
        <path id="Mask-2" data-name="Mask" d="M736.8,1892.575c226.149-60.687,391.081-258.953,581.43-382.192,125.33-81.139,263.411-129.592,401.951-188.6,352.219-150.009,702.956-385.52,635.3-744.59-56.375-299.244-419.575-599.35-819.7-586.189-138.394,4.561-254.865,51.336-356.679,117.446-61.135,39.683-119.417,100.994-203.953,111.523C885.991,231.07,788.4,184.693,707.545,156.72,587.216,115.044,460.516,71.661,329.9,68.871,30.208,62.454-35.408,252.849,11.075,486.423c22.6,113.547,63.13,223.12,93.168,334.994,42.608,158.654,18.637,302.131-9.374,461.888-24.947,142.265-34.793,298.686,51.843,418.308C245.016,1837.348,510.654,1953.263,736.8,1892.575Z" transform="translate(113.139 0) rotate(3)" fill="#fdd32a"/>
      </g>
      <path id="Vector_61" data-name="Vector 61" d="M1440,0V-232L0-586V0Z" transform="translate(1920) rotate(180)" fill="url(#linear-gradient)"/>
    </g>
  </g>
</svg>
