<svg xmlns="http://www.w3.org/2000/svg" width="28.056" height="10.762" viewBox="0 0 28.056 10.762">
  <path id="Path_38" data-name="Path 38" d="M34.238,17.168a3.581,3.581,0,0,0-3.808,3.6v.014a3.244,3.244,0,0,0,3.346,3.381,2.806,2.806,0,0,0,2.678-1.527H36.6c-.035,2.074-.71,3.786-2.4,3.786a1.816,1.816,0,0,1-1.8-1.186l-.021-.071h-1.8l.014.078A3.494,3.494,0,0,0,34.2,27.93c2.579,0,4.135-2.046,4.135-5.5v-.014C38.33,18.723,36.426,17.168,34.238,17.168Zm-.007,5.591a1.955,1.955,0,0,1-2.01-2.039v-.014a2.029,2.029,0,1,1,4.056.043v.014A1.97,1.97,0,0,1,34.231,22.758Zm7.164-1.726a1.122,1.122,0,1,0-1.129-1.122A1.1,1.1,0,0,0,41.395,21.032Zm0,5.271a1.122,1.122,0,1,0-1.129-1.122A1.1,1.1,0,0,0,41.395,26.3Zm8.038,1.371h1.755V25.706h1.378V24.193H51.188v-6.77H48.595C47.2,19.54,45.746,21.9,44.418,24.208v1.5h5.015Zm-3.31-3.438v-.107c.995-1.74,2.181-3.637,3.232-5.243h.106v5.349Zm10.531,3.438h1.833V17.423H56.661l-2.678,1.883v1.726l2.55-1.8h.121Z" transform="translate(-30.43 -17.167)"/>
</svg>
