<svg xmlns="http://www.w3.org/2000/svg" width="23.763" height="11.154" viewBox="0 0 23.763 11.154">
  <path id="Path_35" data-name="Path 35" d="M339.481,17.16h14.376a3.94,3.94,0,0,1,2.092.363,2.469,2.469,0,0,1,1.026,1.027,3.938,3.938,0,0,1,.363,2.092v4.191a3.938,3.938,0,0,1-.363,2.092,2.469,2.469,0,0,1-1.026,1.027,3.94,3.94,0,0,1-2.092.363H339.481a3.94,3.94,0,0,1-2.092-.363,2.468,2.468,0,0,1-1.026-1.027A3.938,3.938,0,0,1,336,24.833V20.641a3.938,3.938,0,0,1,.363-2.092,2.468,2.468,0,0,1,1.026-1.027A3.94,3.94,0,0,1,339.481,17.16Zm0,.97a3.157,3.157,0,0,0-1.634.248,1.5,1.5,0,0,0-.629.629,3.161,3.161,0,0,0-.248,1.635v4.191a3.161,3.161,0,0,0,.248,1.635,1.5,1.5,0,0,0,.629.629,3.157,3.157,0,0,0,1.634.248h14.376a3.157,3.157,0,0,0,1.634-.248,1.5,1.5,0,0,0,.628-.629,3.161,3.161,0,0,0,.248-1.635V20.641a3.161,3.161,0,0,0-.248-1.635,1.5,1.5,0,0,0-.628-.629,3.157,3.157,0,0,0-1.634-.248Zm20.282,4.549c0,1.2-1.455,1.94-1.455,1.94v-3.88S359.763,21.479,359.763,22.679Z" transform="translate(-336 -17.16)" fill-rule="evenodd" opacity="0.36"/>
</svg>
