<svg xmlns="http://www.w3.org/2000/svg" width="14.937" height="10.725" viewBox="0 0 14.937 10.725">
  <path id="Path_36" data-name="Path 36" d="M323.069,19.627a8.449,8.449,0,0,1,5.822,2.326.3.3,0,0,0,.424,0l1.131-1.141a.315.315,0,0,0,0-.446,10.658,10.658,0,0,0-14.749,0,.315.315,0,0,0,0,.446l1.131,1.141a.3.3,0,0,0,.424,0A8.452,8.452,0,0,1,323.069,19.627Zm0,3.712a4.8,4.8,0,0,1,3.221,1.242.3.3,0,0,0,.424-.006l1.129-1.141a.313.313,0,0,0,.092-.225.318.318,0,0,0-.1-.223,7,7,0,0,0-9.538,0,.31.31,0,0,0-.1.224.315.315,0,0,0,.091.225l1.129,1.141a.3.3,0,0,0,.424.006A4.8,4.8,0,0,1,323.069,23.34Zm2.17,2.723a.307.307,0,0,0-.009-.447,3.347,3.347,0,0,0-4.323,0,.31.31,0,0,0-.1.221.3.3,0,0,0,.092.226l1.953,1.971a.3.3,0,0,0,.434,0Z" transform="translate(-315.6 -17.4)" fill-rule="evenodd"/>
</svg>
