<svg xmlns="http://www.w3.org/2000/svg" width="16.586" height="10.378" viewBox="0 0 16.586 10.378">
  <path id="Path_37" data-name="Path 37" d="M307.2,18.537a2.933,2.933,0,0,0-.022.518v7.468a2.933,2.933,0,0,0,.022.518,1.164,1.164,0,0,0,.915.914,6,6,0,0,0,1.036,0,1.164,1.164,0,0,0,.915-.914,2.929,2.929,0,0,0,.022-.518V19.055a2.929,2.929,0,0,0-.022-.518,1.164,1.164,0,0,0-.915-.914,6,6,0,0,0-1.036,0A1.165,1.165,0,0,0,307.2,18.537Zm-4.581,2.846a2.933,2.933,0,0,1,.022-.518,1.165,1.165,0,0,1,.915-.914,6,6,0,0,1,1.036,0,1.164,1.164,0,0,1,.915.914,2.929,2.929,0,0,1,.022.518v5.141a2.929,2.929,0,0,1-.022.518,1.165,1.165,0,0,1-.915.915,6.025,6.025,0,0,1-1.036,0,1.165,1.165,0,0,1-.915-.915,2.933,2.933,0,0,1-.022-.518ZM298.178,23.1a2.929,2.929,0,0,0-.022.518v2.91a2.929,2.929,0,0,0,.022.518,1.165,1.165,0,0,0,.915.915,6.025,6.025,0,0,0,1.036,0,1.165,1.165,0,0,0,.915-.915,2.933,2.933,0,0,0,.022-.518v-2.91a2.933,2.933,0,0,0-.022-.518,1.165,1.165,0,0,0-.915-.914,6,6,0,0,0-1.036,0A1.165,1.165,0,0,0,298.178,23.1Zm-4.656,1.94a2.933,2.933,0,0,0-.022.518v.97a2.933,2.933,0,0,0,.022.518,1.165,1.165,0,0,0,.915.915,6.024,6.024,0,0,0,1.036,0,1.165,1.165,0,0,0,.915-.915,2.929,2.929,0,0,0,.022-.518v-.97a2.929,2.929,0,0,0-.022-.518,1.165,1.165,0,0,0-.915-.914,6,6,0,0,0-1.036,0A1.165,1.165,0,0,0,293.522,25.035Z" transform="translate(-293.5 -17.6)" fill-rule="evenodd"/>
</svg>
