<svg id="XMLID_496_" xmlns="http://www.w3.org/2000/svg" width="28.202" height="24.554" viewBox="0 0 28.202 24.554">
  <path id="XMLID_497_" d="M.5,31.174,7,33.6l2.515,8.089a.765.765,0,0,0,1.215.366L14.349,39.1a1.081,1.081,0,0,1,1.317-.037L22.2,43.808a.766.766,0,0,0,1.2-.463l4.786-23.021a.766.766,0,0,0-1.026-.87L.491,29.741A.766.766,0,0,0,.5,31.174Zm8.608,1.134,12.7-7.822a.221.221,0,0,1,.267.35L11.592,34.58a2.173,2.173,0,0,0-.673,1.3l-.357,2.646a.328.328,0,0,1-.641.046L8.548,33.747A1.279,1.279,0,0,1,9.106,32.308Z" transform="translate(0 -19.401)" fill="#000d0d"/>
</svg>
